<?xml version="1.0" encoding="UTF-8" standalone="no"?>
<!DOCTYPE svg PUBLIC "-//W3C//DTD SVG 1.1//EN"
 "http://www.w3.org/Graphics/SVG/1.1/DTD/svg11.dtd">
<!-- Generated by graphviz version 2.43.0 (0)
 -->
<!-- Title: mcts_tree Pages: 1 -->
<svg width="1665pt" height="605pt"
 viewBox="0.00 0.00 1665.00 605.00" xmlns="http://www.w3.org/2000/svg" xmlns:xlink="http://www.w3.org/1999/xlink">
<g id="graph0" class="graph" transform="scale(1 1) rotate(0) translate(4 601)">
<title>mcts_tree</title>
<polygon fill="white" stroke="transparent" points="-4,4 -4,-601 1661,-601 1661,4 -4,4"/>
<!-- n125246461194800 -->
<g id="node1" class="node">
<title>n125246461194800</title>
<path fill="none" stroke="black" d="M1085,-597C1085,-597 906,-597 906,-597 900,-597 894,-591 894,-585 894,-585 894,-573 894,-573 894,-567 900,-561 906,-561 906,-561 1085,-561 1085,-561 1091,-561 1097,-567 1097,-573 1097,-573 1097,-585 1097,-585 1097,-591 1091,-597 1085,-597"/>
<text text-anchor="middle" x="995.5" y="-582" font-family="Courier,monospace" font-size="10.00">v=0.26 n=5</text>
<text text-anchor="middle" x="995.5" y="-571" font-family="Courier,monospace" font-size="10.00">Let me solve this step by step.</text>
</g>
<!-- n125246459245152 -->
<g id="node2" class="node">
<title>n125246459245152</title>
<path fill="none" stroke="black" d="M640,-525C640,-525 347,-525 347,-525 341,-525 335,-519 335,-513 335,-513 335,-496 335,-496 335,-490 341,-484 347,-484 347,-484 640,-484 640,-484 646,-484 652,-490 652,-496 652,-496 652,-513 652,-513 652,-519 646,-525 640,-525"/>
<text text-anchor="middle" x="493.5" y="-513" font-family="Courier,monospace" font-size="10.00">ASSUME</text>
<text text-anchor="middle" x="493.5" y="-502" font-family="Courier,monospace" font-size="10.00">v=0.32 n=2</text>
<text text-anchor="middle" x="493.5" y="-491" font-family="Courier,monospace" font-size="10.00">If we assume B says &quot;We are the same type&quot; when A </text>
</g>
<!-- n125246461194800&#45;&gt;n125246459245152 -->
<g id="edge1" class="edge">
<title>n125246461194800&#45;&gt;n125246459245152</title>
<path fill="none" stroke="#888888" d="M893.91,-563.33C820.69,-552.75 720.8,-538.33 639.11,-526.53"/>
<polygon fill="#888888" stroke="#888888" points="639.13,-523 628.73,-525.03 638.13,-529.92 639.13,-523"/>
</g>
<!-- n125246459245296 -->
<g id="node11" class="node">
<title>n125246459245296</title>
<path fill="none" stroke="black" d="M1142,-525C1142,-525 849,-525 849,-525 843,-525 837,-519 837,-513 837,-513 837,-496 837,-496 837,-490 843,-484 849,-484 849,-484 1142,-484 1142,-484 1148,-484 1154,-490 1154,-496 1154,-496 1154,-513 1154,-513 1154,-519 1148,-525 1142,-525"/>
<text text-anchor="middle" x="995.5" y="-513" font-family="Courier,monospace" font-size="10.00">ASSUME</text>
<text text-anchor="middle" x="995.5" y="-502" font-family="Courier,monospace" font-size="10.00">v=0.32 n=2</text>
<text text-anchor="middle" x="995.5" y="-491" font-family="Courier,monospace" font-size="10.00">This scenario creates an infinite loop of contradi</text>
</g>
<!-- n125246461194800&#45;&gt;n125246459245296 -->
<g id="edge10" class="edge">
<title>n125246461194800&#45;&gt;n125246459245296</title>
<path fill="none" stroke="#888888" d="M995.5,-560.82C995.5,-553.2 995.5,-544 995.5,-535.32"/>
<polygon fill="#888888" stroke="#888888" points="999,-535.12 995.5,-525.12 992,-535.12 999,-535.12"/>
</g>
<!-- n125246459396752 -->
<g id="node22" class="node">
<title>n125246459396752</title>
<path fill="none" stroke="black" d="M1561,-525C1561,-525 1268,-525 1268,-525 1262,-525 1256,-519 1256,-513 1256,-513 1256,-496 1256,-496 1256,-490 1262,-484 1268,-484 1268,-484 1561,-484 1561,-484 1567,-484 1573,-490 1573,-496 1573,-496 1573,-513 1573,-513 1573,-519 1567,-525 1561,-525"/>
<text text-anchor="middle" x="1414.5" y="-513" font-family="Courier,monospace" font-size="10.00">ASSUME</text>
<text text-anchor="middle" x="1414.5" y="-502" font-family="Courier,monospace" font-size="10.00">v=0.00 n=1</text>
<text text-anchor="middle" x="1414.5" y="-491" font-family="Courier,monospace" font-size="10.00">Therefore, if our assumption that A says &quot;B is a k</text>
</g>
<!-- n125246461194800&#45;&gt;n125246459396752 -->
<g id="edge21" class="edge">
<title>n125246461194800&#45;&gt;n125246459396752</title>
<path fill="none" stroke="#888888" d="M1094,-560.96C1153.02,-550.74 1228.55,-537.67 1291.47,-526.79"/>
<polygon fill="#888888" stroke="#888888" points="1292.2,-530.21 1301.45,-525.06 1291,-523.32 1292.2,-530.21"/>
</g>
<!-- n125246457318864 -->
<g id="node3" class="node">
<title>n125246457318864</title>
<path fill="none" stroke="black" d="M305,-448C305,-448 12,-448 12,-448 6,-448 0,-442 0,-436 0,-436 0,-419 0,-419 0,-413 6,-407 12,-407 12,-407 305,-407 305,-407 311,-407 317,-413 317,-419 317,-419 317,-436 317,-436 317,-442 311,-448 305,-448"/>
<text text-anchor="middle" x="158.5" y="-436" font-family="Courier,monospace" font-size="10.00">COMPARE</text>
<text text-anchor="middle" x="158.5" y="-425" font-family="Courier,monospace" font-size="10.00">v=0.00 n=1</text>
<text text-anchor="middle" x="158.5" y="-414" font-family="Courier,monospace" font-size="10.00">However, there are still uncertainties regarding t</text>
</g>
<!-- n125246459245152&#45;&gt;n125246457318864 -->
<g id="edge2" class="edge">
<title>n125246459245152&#45;&gt;n125246457318864</title>
<path fill="none" stroke="#888888" d="M406.36,-483.99C360.2,-473.66 303.38,-460.94 255.8,-450.28"/>
<polygon fill="#888888" stroke="#888888" points="256.31,-446.81 245.79,-448.04 254.78,-453.64 256.31,-446.81"/>
</g>
<!-- n125246457318912 -->
<g id="node9" class="node">
<title>n125246457318912</title>
<path fill="none" stroke="black" d="M640,-448C640,-448 347,-448 347,-448 341,-448 335,-442 335,-436 335,-436 335,-419 335,-419 335,-413 341,-407 347,-407 347,-407 640,-407 640,-407 646,-407 652,-413 652,-419 652,-419 652,-436 652,-436 652,-442 646,-448 640,-448"/>
<text text-anchor="middle" x="493.5" y="-436" font-family="Courier,monospace" font-size="10.00">VERIFY</text>
<text text-anchor="middle" x="493.5" y="-425" font-family="Courier,monospace" font-size="10.00">v=0.65 n=1</text>
<text text-anchor="middle" x="493.5" y="-414" font-family="Courier,monospace" font-size="10.00">As for the rest of your reasoning, it seems sound:</text>
</g>
<!-- n125246459245152&#45;&gt;n125246457318912 -->
<g id="edge8" class="edge">
<title>n125246459245152&#45;&gt;n125246457318912</title>
<path fill="none" stroke="#888888" d="M493.5,-483.79C493.5,-475.96 493.5,-466.77 493.5,-458.16"/>
<polygon fill="#888888" stroke="#888888" points="497,-458.07 493.5,-448.07 490,-458.07 497,-458.07"/>
</g>
<!-- n125246457319056 -->
<g id="node4" class="node">
<title>n125246457319056</title>
<path fill="none" stroke="black" d="M305,-365.5C305,-365.5 12,-365.5 12,-365.5 6,-365.5 0,-359.5 0,-353.5 0,-353.5 0,-336.5 0,-336.5 0,-330.5 6,-324.5 12,-324.5 12,-324.5 305,-324.5 305,-324.5 311,-324.5 317,-330.5 317,-336.5 317,-336.5 317,-353.5 317,-353.5 317,-359.5 311,-365.5 305,-365.5"/>
<text text-anchor="middle" x="158.5" y="-353.5" font-family="Courier,monospace" font-size="10.00">COMPARE</text>
<text text-anchor="middle" x="158.5" y="-342.5" font-family="Courier,monospace" font-size="10.00">v=0.00 n=1</text>
<text text-anchor="middle" x="158.5" y="-331.5" font-family="Courier,monospace" font-size="10.00">These uncertainties highlight potential areas for </text>
</g>
<!-- n125246457318864&#45;&gt;n125246457319056 -->
<g id="edge3" class="edge">
<title>n125246457318864&#45;&gt;n125246457319056</title>
<path fill="none" stroke="#888888" d="M158.5,-406.6C158.5,-397.34 158.5,-386.13 158.5,-375.88"/>
<polygon fill="#888888" stroke="#888888" points="162,-375.67 158.5,-365.67 155,-375.67 162,-375.67"/>
</g>
<!-- n125246457319104 -->
<g id="node5" class="node">
<title>n125246457319104</title>
<path fill="none" stroke="black" d="M185,-283C185,-283 132,-283 132,-283 126,-283 120,-277 120,-271 120,-271 120,-254 120,-254 120,-248 126,-242 132,-242 132,-242 185,-242 185,-242 191,-242 197,-248 197,-254 197,-254 197,-271 197,-271 197,-277 191,-283 185,-283"/>
<text text-anchor="middle" x="158.5" y="-271" font-family="Courier,monospace" font-size="10.00">COMPARE</text>
<text text-anchor="middle" x="158.5" y="-260" font-family="Courier,monospace" font-size="10.00">v=0.00 n=1</text>
<text text-anchor="middle" x="158.5" y="-249" font-family="Courier,monospace" font-size="10.00">These</text>
</g>
<!-- n125246457319056&#45;&gt;n125246457319104 -->
<g id="edge4" class="edge">
<title>n125246457319056&#45;&gt;n125246457319104</title>
<path fill="none" stroke="#888888" d="M158.5,-324.1C158.5,-314.84 158.5,-303.63 158.5,-293.38"/>
<polygon fill="#888888" stroke="#888888" points="162,-293.17 158.5,-283.17 155,-293.17 162,-293.17"/>
</g>
<!-- n125246457319344 -->
<g id="node6" class="node">
<title>n125246457319344</title>
<path fill="none" stroke="black" d="M305,-200.5C305,-200.5 12,-200.5 12,-200.5 6,-200.5 0,-194.5 0,-188.5 0,-188.5 0,-171.5 0,-171.5 0,-165.5 6,-159.5 12,-159.5 12,-159.5 305,-159.5 305,-159.5 311,-159.5 317,-165.5 317,-171.5 317,-171.5 317,-188.5 317,-188.5 317,-194.5 311,-200.5 305,-200.5"/>
<text text-anchor="middle" x="158.5" y="-188.5" font-family="Courier,monospace" font-size="10.00">ASSUME</text>
<text text-anchor="middle" x="158.5" y="-177.5" font-family="Courier,monospace" font-size="10.00">v=0.00 n=1</text>
<text text-anchor="middle" x="158.5" y="-166.5" font-family="Courier,monospace" font-size="10.00">This new derivation provides stronger conclusions </text>
</g>
<!-- n125246457319104&#45;&gt;n125246457319344 -->
<g id="edge5" class="edge">
<title>n125246457319104&#45;&gt;n125246457319344</title>
<path fill="none" stroke="#888888" d="M158.5,-241.6C158.5,-232.34 158.5,-221.13 158.5,-210.88"/>
<polygon fill="#888888" stroke="#888888" points="162,-210.67 158.5,-200.67 155,-210.67 162,-210.67"/>
</g>
<!-- n125246457319296 -->
<g id="node7" class="node">
<title>n125246457319296</title>
<path fill="none" stroke="black" d="M305,-118C305,-118 12,-118 12,-118 6,-118 0,-112 0,-106 0,-106 0,-89 0,-89 0,-83 6,-77 12,-77 12,-77 305,-77 305,-77 311,-77 317,-83 317,-89 317,-89 317,-106 317,-106 317,-112 311,-118 305,-118"/>
<text text-anchor="middle" x="158.5" y="-106" font-family="Courier,monospace" font-size="10.00">DEDUCE</text>
<text text-anchor="middle" x="158.5" y="-95" font-family="Courier,monospace" font-size="10.00">v=0.00 n=1</text>
<text text-anchor="middle" x="158.5" y="-84" font-family="Courier,monospace" font-size="10.00">This conclusion logically follows from the given i</text>
</g>
<!-- n125246457319344&#45;&gt;n125246457319296 -->
<g id="edge6" class="edge">
<title>n125246457319344&#45;&gt;n125246457319296</title>
<path fill="none" stroke="#888888" d="M158.5,-159.1C158.5,-149.84 158.5,-138.63 158.5,-128.38"/>
<polygon fill="#888888" stroke="#888888" points="162,-128.17 158.5,-118.17 155,-128.17 162,-128.17"/>
</g>
<!-- n125246457319392 -->
<g id="node8" class="node">
<title>n125246457319392</title>
<path fill="none" stroke="black" d="M305,-41C305,-41 12,-41 12,-41 6,-41 0,-35 0,-29 0,-29 0,-12 0,-12 0,-6 6,0 12,0 12,0 305,0 305,0 311,0 317,-6 317,-12 317,-12 317,-29 317,-29 317,-35 311,-41 305,-41"/>
<text text-anchor="middle" x="158.5" y="-29" font-family="Courier,monospace" font-size="10.00">VERIFY</text>
<text text-anchor="middle" x="158.5" y="-18" font-family="Courier,monospace" font-size="10.00">v=0.00 n=1</text>
<text text-anchor="middle" x="158.5" y="-7" font-family="Courier,monospace" font-size="10.00">Overall, your reasoning is careful and thorough, a</text>
</g>
<!-- n125246457319296&#45;&gt;n125246457319392 -->
<g id="edge7" class="edge">
<title>n125246457319296&#45;&gt;n125246457319392</title>
<path fill="none" stroke="#888888" d="M158.5,-76.79C158.5,-68.96 158.5,-59.77 158.5,-51.16"/>
<polygon fill="#888888" stroke="#888888" points="162,-51.07 158.5,-41.07 155,-51.07 162,-51.07"/>
</g>
<!-- n125246457319536 -->
<g id="node10" class="node">
<title>n125246457319536</title>
<path fill="#4ade80" fill-opacity="0.133333" stroke="black" d="M589,-371C589,-371 398,-371 398,-371 392,-371 386,-365 386,-359 386,-359 386,-331 386,-331 386,-325 392,-319 398,-319 398,-319 589,-319 589,-319 595,-319 601,-325 601,-331 601,-331 601,-359 601,-359 601,-365 595,-371 589,-371"/>
<text text-anchor="middle" x="493.5" y="-359" font-family="Courier,monospace" font-size="10.00">CONCLUDE</text>
<text text-anchor="middle" x="493.5" y="-348" font-family="Courier,monospace" font-size="10.00">v=0.65 n=1</text>
<text text-anchor="middle" x="493.5" y="-337" font-family="Courier,monospace" font-size="10.00">[conclude] ANSWER: A is a knight.</text>
<text text-anchor="middle" x="493.5" y="-326" font-family="Courier,monospace" font-size="10.00">ANSWER: A is a knight.</text>
</g>
<!-- n125246457318912&#45;&gt;n125246457319536 -->
<g id="edge9" class="edge">
<title>n125246457318912&#45;&gt;n125246457319536</title>
<path fill="none" stroke="#888888" d="M493.5,-406.6C493.5,-398.99 493.5,-390.06 493.5,-381.43"/>
<polygon fill="#888888" stroke="#888888" points="497,-381.16 493.5,-371.16 490,-381.16 497,-381.16"/>
</g>
<!-- n125246459397280 -->
<g id="node12" class="node">
<title>n125246459397280</title>
<path fill="none" stroke="black" d="M975,-448C975,-448 682,-448 682,-448 676,-448 670,-442 670,-436 670,-436 670,-419 670,-419 670,-413 676,-407 682,-407 682,-407 975,-407 975,-407 981,-407 987,-413 987,-419 987,-419 987,-436 987,-436 987,-442 981,-448 975,-448"/>
<text text-anchor="middle" x="828.5" y="-436" font-family="Courier,monospace" font-size="10.00">DEDUCE</text>
<text text-anchor="middle" x="828.5" y="-425" font-family="Courier,monospace" font-size="10.00">v=0.00 n=1</text>
<text text-anchor="middle" x="828.5" y="-414" font-family="Courier,monospace" font-size="10.00">By analyzing both possible scenarios and finding c</text>
</g>
<!-- n125246459245296&#45;&gt;n125246459397280 -->
<g id="edge11" class="edge">
<title>n125246459245296&#45;&gt;n125246459397280</title>
<path fill="none" stroke="#888888" d="M952.06,-483.99C930.4,-474.26 904.03,-462.42 881.22,-452.18"/>
<polygon fill="#888888" stroke="#888888" points="882.57,-448.95 872.01,-448.04 879.7,-455.33 882.57,-448.95"/>
</g>
<!-- n125246459397328 -->
<g id="node18" class="node">
<title>n125246459397328</title>
<path fill="none" stroke="black" d="M1310,-448C1310,-448 1017,-448 1017,-448 1011,-448 1005,-442 1005,-436 1005,-436 1005,-419 1005,-419 1005,-413 1011,-407 1017,-407 1017,-407 1310,-407 1310,-407 1316,-407 1322,-413 1322,-419 1322,-419 1322,-436 1322,-436 1322,-442 1316,-448 1310,-448"/>
<text text-anchor="middle" x="1163.5" y="-436" font-family="Courier,monospace" font-size="10.00">COMPARE</text>
<text text-anchor="middle" x="1163.5" y="-425" font-family="Courier,monospace" font-size="10.00">v=0.65 n=1</text>
<text text-anchor="middle" x="1163.5" y="-414" font-family="Courier,monospace" font-size="10.00">The main uncertainty lies in the fact that both po</text>
</g>
<!-- n125246459245296&#45;&gt;n125246459397328 -->
<g id="edge17" class="edge">
<title>n125246459245296&#45;&gt;n125246459397328</title>
<path fill="none" stroke="#888888" d="M1039.2,-483.99C1060.99,-474.26 1087.52,-462.42 1110.47,-452.18"/>
<polygon fill="#888888" stroke="#888888" points="1112.02,-455.31 1119.73,-448.04 1109.17,-448.92 1112.02,-455.31"/>
</g>
<!-- n125246459397568 -->
<g id="node13" class="node">
<title>n125246459397568</title>
<path fill="none" stroke="black" d="M975,-365.5C975,-365.5 682,-365.5 682,-365.5 676,-365.5 670,-359.5 670,-353.5 670,-353.5 670,-336.5 670,-336.5 670,-330.5 676,-324.5 682,-324.5 682,-324.5 975,-324.5 975,-324.5 981,-324.5 987,-330.5 987,-336.5 987,-336.5 987,-353.5 987,-353.5 987,-359.5 981,-365.5 975,-365.5"/>
<text text-anchor="middle" x="828.5" y="-353.5" font-family="Courier,monospace" font-size="10.00">DEDUCE</text>
<text text-anchor="middle" x="828.5" y="-342.5" font-family="Courier,monospace" font-size="10.00">v=0.00 n=1</text>
<text text-anchor="middle" x="828.5" y="-331.5" font-family="Courier,monospace" font-size="10.00">This outcome highlights the limitations of relying</text>
</g>
<!-- n125246459397280&#45;&gt;n125246459397568 -->
<g id="edge12" class="edge">
<title>n125246459397280&#45;&gt;n125246459397568</title>
<path fill="none" stroke="#888888" d="M828.5,-406.6C828.5,-397.34 828.5,-386.13 828.5,-375.88"/>
<polygon fill="#888888" stroke="#888888" points="832,-375.67 828.5,-365.67 825,-375.67 832,-375.67"/>
</g>
<!-- n125246457318768 -->
<g id="node14" class="node">
<title>n125246457318768</title>
<path fill="none" stroke="black" d="M975,-283C975,-283 682,-283 682,-283 676,-283 670,-277 670,-271 670,-271 670,-254 670,-254 670,-248 676,-242 682,-242 682,-242 975,-242 975,-242 981,-242 987,-248 987,-254 987,-254 987,-271 987,-271 987,-277 981,-283 975,-283"/>
<text text-anchor="middle" x="828.5" y="-271" font-family="Courier,monospace" font-size="10.00">DEDUCE</text>
<text text-anchor="middle" x="828.5" y="-260" font-family="Courier,monospace" font-size="10.00">v=0.00 n=1</text>
<text text-anchor="middle" x="828.5" y="-249" font-family="Courier,monospace" font-size="10.00">Since both knights and knaves are uncertain about </text>
</g>
<!-- n125246459397568&#45;&gt;n125246457318768 -->
<g id="edge13" class="edge">
<title>n125246459397568&#45;&gt;n125246457318768</title>
<path fill="none" stroke="#888888" d="M828.5,-324.1C828.5,-314.84 828.5,-303.63 828.5,-293.38"/>
<polygon fill="#888888" stroke="#888888" points="832,-293.17 828.5,-283.17 825,-293.17 832,-293.17"/>
</g>
<!-- n125246457318528 -->
<g id="node15" class="node">
<title>n125246457318528</title>
<path fill="none" stroke="black" d="M975,-200.5C975,-200.5 682,-200.5 682,-200.5 676,-200.5 670,-194.5 670,-188.5 670,-188.5 670,-171.5 670,-171.5 670,-165.5 676,-159.5 682,-159.5 682,-159.5 975,-159.5 975,-159.5 981,-159.5 987,-165.5 987,-171.5 987,-171.5 987,-188.5 987,-188.5 987,-194.5 981,-200.5 975,-200.5"/>
<text text-anchor="middle" x="828.5" y="-188.5" font-family="Courier,monospace" font-size="10.00">DEDUCE</text>
<text text-anchor="middle" x="828.5" y="-177.5" font-family="Courier,monospace" font-size="10.00">v=0.00 n=1</text>
<text text-anchor="middle" x="828.5" y="-166.5" font-family="Courier,monospace" font-size="10.00">This conclusion arises because, regardless of whet</text>
</g>
<!-- n125246457318768&#45;&gt;n125246457318528 -->
<g id="edge14" class="edge">
<title>n125246457318768&#45;&gt;n125246457318528</title>
<path fill="none" stroke="#888888" d="M828.5,-241.6C828.5,-232.34 828.5,-221.13 828.5,-210.88"/>
<polygon fill="#888888" stroke="#888888" points="832,-210.67 828.5,-200.67 825,-210.67 832,-210.67"/>
</g>
<!-- n125246457317952 -->
<g id="node16" class="node">
<title>n125246457317952</title>
<path fill="none" stroke="black" d="M975,-118C975,-118 682,-118 682,-118 676,-118 670,-112 670,-106 670,-106 670,-89 670,-89 670,-83 676,-77 682,-77 682,-77 975,-77 975,-77 981,-77 987,-83 987,-89 987,-89 987,-106 987,-106 987,-112 981,-118 975,-118"/>
<text text-anchor="middle" x="828.5" y="-106" font-family="Courier,monospace" font-size="10.00">VERIFY</text>
<text text-anchor="middle" x="828.5" y="-95" font-family="Courier,monospace" font-size="10.00">v=0.00 n=1</text>
<text text-anchor="middle" x="828.5" y="-84" font-family="Courier,monospace" font-size="10.00">Other than these minor points, your reasoning appe</text>
</g>
<!-- n125246457318528&#45;&gt;n125246457317952 -->
<g id="edge15" class="edge">
<title>n125246457318528&#45;&gt;n125246457317952</title>
<path fill="none" stroke="#888888" d="M828.5,-159.1C828.5,-149.84 828.5,-138.63 828.5,-128.38"/>
<polygon fill="#888888" stroke="#888888" points="832,-128.17 828.5,-118.17 825,-128.17 832,-128.17"/>
</g>
<!-- n125246457318960 -->
<g id="node17" class="node">
<title>n125246457318960</title>
<path fill="none" stroke="black" d="M975,-41C975,-41 682,-41 682,-41 676,-41 670,-35 670,-29 670,-29 670,-12 670,-12 670,-6 676,0 682,0 682,0 975,0 975,0 981,0 987,-6 987,-12 987,-12 987,-29 987,-29 987,-35 981,-41 975,-41"/>
<text text-anchor="middle" x="828.5" y="-29" font-family="Courier,monospace" font-size="10.00">DEDUCE</text>
<text text-anchor="middle" x="828.5" y="-18" font-family="Courier,monospace" font-size="10.00">v=0.00 n=1</text>
<text text-anchor="middle" x="828.5" y="-7" font-family="Courier,monospace" font-size="10.00">By analyzing both possible scenarios and finding c</text>
</g>
<!-- n125246457317952&#45;&gt;n125246457318960 -->
<g id="edge16" class="edge">
<title>n125246457317952&#45;&gt;n125246457318960</title>
<path fill="none" stroke="#888888" d="M828.5,-76.79C828.5,-68.96 828.5,-59.77 828.5,-51.16"/>
<polygon fill="#888888" stroke="#888888" points="832,-51.07 828.5,-41.07 825,-51.07 832,-51.07"/>
</g>
<!-- n125246459397424 -->
<g id="node19" class="node">
<title>n125246459397424</title>
<path fill="none" stroke="black" d="M1310,-365.5C1310,-365.5 1017,-365.5 1017,-365.5 1011,-365.5 1005,-359.5 1005,-353.5 1005,-353.5 1005,-336.5 1005,-336.5 1005,-330.5 1011,-324.5 1017,-324.5 1017,-324.5 1310,-324.5 1310,-324.5 1316,-324.5 1322,-330.5 1322,-336.5 1322,-336.5 1322,-353.5 1322,-353.5 1322,-359.5 1316,-365.5 1310,-365.5"/>
<text text-anchor="middle" x="1163.5" y="-353.5" font-family="Courier,monospace" font-size="10.00">VERIFY</text>
<text text-anchor="middle" x="1163.5" y="-342.5" font-family="Courier,monospace" font-size="10.00">v=0.65 n=1</text>
<text text-anchor="middle" x="1163.5" y="-331.5" font-family="Courier,monospace" font-size="10.00">Overall, your reasoning is sound, but with a few m</text>
</g>
<!-- n125246459397328&#45;&gt;n125246459397424 -->
<g id="edge18" class="edge">
<title>n125246459397328&#45;&gt;n125246459397424</title>
<path fill="none" stroke="#888888" d="M1163.5,-406.6C1163.5,-397.34 1163.5,-386.13 1163.5,-375.88"/>
<polygon fill="#888888" stroke="#888888" points="1167,-375.67 1163.5,-365.67 1160,-375.67 1167,-375.67"/>
</g>
<!-- n125246459397472 -->
<g id="node20" class="node">
<title>n125246459397472</title>
<path fill="none" stroke="black" d="M1310,-283C1310,-283 1017,-283 1017,-283 1011,-283 1005,-277 1005,-271 1005,-271 1005,-254 1005,-254 1005,-248 1011,-242 1017,-242 1017,-242 1310,-242 1310,-242 1316,-242 1322,-248 1322,-254 1322,-254 1322,-271 1322,-271 1322,-277 1316,-283 1310,-283"/>
<text text-anchor="middle" x="1163.5" y="-271" font-family="Courier,monospace" font-size="10.00">VERIFY</text>
<text text-anchor="middle" x="1163.5" y="-260" font-family="Courier,monospace" font-size="10.00">v=0.65 n=1</text>
<text text-anchor="middle" x="1163.5" y="-249" font-family="Courier,monospace" font-size="10.00">In conclusion, your reasoning is generally sound, </text>
</g>
<!-- n125246459397424&#45;&gt;n125246459397472 -->
<g id="edge19" class="edge">
<title>n125246459397424&#45;&gt;n125246459397472</title>
<path fill="none" stroke="#888888" d="M1163.5,-324.1C1163.5,-314.84 1163.5,-303.63 1163.5,-293.38"/>
<polygon fill="#888888" stroke="#888888" points="1167,-293.17 1163.5,-283.17 1160,-293.17 1167,-293.17"/>
</g>
<!-- n125246459397520 -->
<g id="node21" class="node">
<title>n125246459397520</title>
<path fill="#4ade80" fill-opacity="0.133333" stroke="black" d="M1244,-206C1244,-206 1083,-206 1083,-206 1077,-206 1071,-200 1071,-194 1071,-194 1071,-166 1071,-166 1071,-160 1077,-154 1083,-154 1083,-154 1244,-154 1244,-154 1250,-154 1256,-160 1256,-166 1256,-166 1256,-194 1256,-194 1256,-200 1250,-206 1244,-206"/>
<text text-anchor="middle" x="1163.5" y="-194" font-family="Courier,monospace" font-size="10.00">CONCLUDE</text>
<text text-anchor="middle" x="1163.5" y="-183" font-family="Courier,monospace" font-size="10.00">v=0.65 n=1</text>
<text text-anchor="middle" x="1163.5" y="-172" font-family="Courier,monospace" font-size="10.00">[conclude] ANSWER: A knight.</text>
<text text-anchor="middle" x="1163.5" y="-161" font-family="Courier,monospace" font-size="10.00">ANSWER: A knight.</text>
</g>
<!-- n125246459397472&#45;&gt;n125246459397520 -->
<g id="edge20" class="edge">
<title>n125246459397472&#45;&gt;n125246459397520</title>
<path fill="none" stroke="#888888" d="M1163.5,-241.6C1163.5,-233.99 1163.5,-225.06 1163.5,-216.43"/>
<polygon fill="#888888" stroke="#888888" points="1167,-216.16 1163.5,-206.16 1160,-216.16 1167,-216.16"/>
</g>
<!-- n125246459396704 -->
<g id="node23" class="node">
<title>n125246459396704</title>
<path fill="none" stroke="black" d="M1645,-448C1645,-448 1352,-448 1352,-448 1346,-448 1340,-442 1340,-436 1340,-436 1340,-419 1340,-419 1340,-413 1346,-407 1352,-407 1352,-407 1645,-407 1645,-407 1651,-407 1657,-413 1657,-419 1657,-419 1657,-436 1657,-436 1657,-442 1651,-448 1645,-448"/>
<text text-anchor="middle" x="1498.5" y="-436" font-family="Courier,monospace" font-size="10.00">ASSUME</text>
<text text-anchor="middle" x="1498.5" y="-425" font-family="Courier,monospace" font-size="10.00">v=0.00 n=1</text>
<text text-anchor="middle" x="1498.5" y="-414" font-family="Courier,monospace" font-size="10.00">Therefore, if our assumption that A says &quot;We are t</text>
</g>
<!-- n125246459396752&#45;&gt;n125246459396704 -->
<g id="edge22" class="edge">
<title>n125246459396752&#45;&gt;n125246459396704</title>
<path fill="none" stroke="#888888" d="M1436.57,-483.79C1446.51,-474.92 1458.38,-464.32 1469.06,-454.79"/>
<polygon fill="#888888" stroke="#888888" points="1471.45,-457.34 1476.58,-448.07 1466.79,-452.12 1471.45,-457.34"/>
</g>
<!-- n125246459396800 -->
<g id="node24" class="node">
<title>n125246459396800</title>
<path fill="none" stroke="black" d="M1645,-365.5C1645,-365.5 1352,-365.5 1352,-365.5 1346,-365.5 1340,-359.5 1340,-353.5 1340,-353.5 1340,-336.5 1340,-336.5 1340,-330.5 1346,-324.5 1352,-324.5 1352,-324.5 1645,-324.5 1645,-324.5 1651,-324.5 1657,-330.5 1657,-336.5 1657,-336.5 1657,-353.5 1657,-353.5 1657,-359.5 1651,-365.5 1645,-365.5"/>
<text text-anchor="middle" x="1498.5" y="-353.5" font-family="Courier,monospace" font-size="10.00">DEDUCE</text>
<text text-anchor="middle" x="1498.5" y="-342.5" font-family="Courier,monospace" font-size="10.00">v=0.00 n=1</text>
<text text-anchor="middle" x="1498.5" y="-331.5" font-family="Courier,monospace" font-size="10.00">In contrast, if A is a knight, as initially assume</text>
</g>
<!-- n125246459396704&#45;&gt;n125246459396800 -->
<g id="edge23" class="edge">
<title>n125246459396704&#45;&gt;n125246459396800</title>
<path fill="none" stroke="#888888" d="M1498.5,-406.6C1498.5,-397.34 1498.5,-386.13 1498.5,-375.88"/>
<polygon fill="#888888" stroke="#888888" points="1502,-375.67 1498.5,-365.67 1495,-375.67 1502,-375.67"/>
</g>
<!-- n125246459396896 -->
<g id="node25" class="node">
<title>n125246459396896</title>
<path fill="none" stroke="black" d="M1645,-283C1645,-283 1352,-283 1352,-283 1346,-283 1340,-277 1340,-271 1340,-271 1340,-254 1340,-254 1340,-248 1346,-242 1352,-242 1352,-242 1645,-242 1645,-242 1651,-242 1657,-248 1657,-254 1657,-254 1657,-271 1657,-271 1657,-277 1651,-283 1645,-283"/>
<text text-anchor="middle" x="1498.5" y="-271" font-family="Courier,monospace" font-size="10.00">ASSUME</text>
<text text-anchor="middle" x="1498.5" y="-260" font-family="Courier,monospace" font-size="10.00">v=0.00 n=1</text>
<text text-anchor="middle" x="1498.5" y="-249" font-family="Courier,monospace" font-size="10.00">A and B must have different types: A is a knight a</text>
</g>
<!-- n125246459396800&#45;&gt;n125246459396896 -->
<g id="edge24" class="edge">
<title>n125246459396800&#45;&gt;n125246459396896</title>
<path fill="none" stroke="#888888" d="M1498.5,-324.1C1498.5,-314.84 1498.5,-303.63 1498.5,-293.38"/>
<polygon fill="#888888" stroke="#888888" points="1502,-293.17 1498.5,-283.17 1495,-293.17 1502,-293.17"/>
</g>
<!-- n125246459396848 -->
<g id="node26" class="node">
<title>n125246459396848</title>
<path fill="none" stroke="black" d="M1645,-200.5C1645,-200.5 1352,-200.5 1352,-200.5 1346,-200.5 1340,-194.5 1340,-188.5 1340,-188.5 1340,-171.5 1340,-171.5 1340,-165.5 1346,-159.5 1352,-159.5 1352,-159.5 1645,-159.5 1645,-159.5 1651,-159.5 1657,-165.5 1657,-171.5 1657,-171.5 1657,-188.5 1657,-188.5 1657,-194.5 1651,-200.5 1645,-200.5"/>
<text text-anchor="middle" x="1498.5" y="-188.5" font-family="Courier,monospace" font-size="10.00">VERIFY</text>
<text text-anchor="middle" x="1498.5" y="-177.5" font-family="Courier,monospace" font-size="10.00">v=0.00 n=1</text>
<text text-anchor="middle" x="1498.5" y="-166.5" font-family="Courier,monospace" font-size="10.00">To strengthen your reasoning, consider testing bot</text>
</g>
<!-- n125246459396896&#45;&gt;n125246459396848 -->
<g id="edge25" class="edge">
<title>n125246459396896&#45;&gt;n125246459396848</title>
<path fill="none" stroke="#888888" d="M1498.5,-241.6C1498.5,-232.34 1498.5,-221.13 1498.5,-210.88"/>
<polygon fill="#888888" stroke="#888888" points="1502,-210.67 1498.5,-200.67 1495,-210.67 1502,-210.67"/>
</g>
<!-- n125246459397232 -->
<g id="node27" class="node">
<title>n125246459397232</title>
<path fill="none" stroke="black" d="M1645,-118C1645,-118 1352,-118 1352,-118 1346,-118 1340,-112 1340,-106 1340,-106 1340,-89 1340,-89 1340,-83 1346,-77 1352,-77 1352,-77 1645,-77 1645,-77 1651,-77 1657,-83 1657,-89 1657,-89 1657,-106 1657,-106 1657,-112 1651,-118 1645,-118"/>
<text text-anchor="middle" x="1498.5" y="-106" font-family="Courier,monospace" font-size="10.00">COMPARE</text>
<text text-anchor="middle" x="1498.5" y="-95" font-family="Courier,monospace" font-size="10.00">v=0.00 n=1</text>
<text text-anchor="middle" x="1498.5" y="-84" font-family="Courier,monospace" font-size="10.00">To resolve this uncertainty, further analysis woul</text>
</g>
<!-- n125246459396848&#45;&gt;n125246459397232 -->
<g id="edge26" class="edge">
<title>n125246459396848&#45;&gt;n125246459397232</title>
<path fill="none" stroke="#888888" d="M1498.5,-159.1C1498.5,-149.84 1498.5,-138.63 1498.5,-128.38"/>
<polygon fill="#888888" stroke="#888888" points="1502,-128.17 1498.5,-118.17 1495,-128.17 1502,-128.17"/>
</g>
<!-- n125246459396992 -->
<g id="node28" class="node">
<title>n125246459396992</title>
<path fill="none" stroke="black" d="M1645,-41C1645,-41 1352,-41 1352,-41 1346,-41 1340,-35 1340,-29 1340,-29 1340,-12 1340,-12 1340,-6 1346,0 1352,0 1352,0 1645,0 1645,0 1651,0 1657,-6 1657,-12 1657,-12 1657,-29 1657,-29 1657,-35 1651,-41 1645,-41"/>
<text text-anchor="middle" x="1498.5" y="-29" font-family="Courier,monospace" font-size="10.00">DEDUCE</text>
<text text-anchor="middle" x="1498.5" y="-18" font-family="Courier,monospace" font-size="10.00">v=0.00 n=1</text>
<text text-anchor="middle" x="1498.5" y="-7" font-family="Courier,monospace" font-size="10.00">In other words, if we assume that either A says &quot;B</text>
</g>
<!-- n125246459397232&#45;&gt;n125246459396992 -->
<g id="edge27" class="edge">
<title>n125246459397232&#45;&gt;n125246459396992</title>
<path fill="none" stroke="#888888" d="M1498.5,-76.79C1498.5,-68.96 1498.5,-59.77 1498.5,-51.16"/>
<polygon fill="#888888" stroke="#888888" points="1502,-51.07 1498.5,-41.07 1495,-51.07 1502,-51.07"/>
</g>
</g>
</svg>
