<?xml version="1.0" encoding="UTF-8" standalone="no"?>
<!DOCTYPE svg PUBLIC "-//W3C//DTD SVG 1.1//EN"
 "http://www.w3.org/Graphics/SVG/1.1/DTD/svg11.dtd">
<!-- Generated by graphviz version 2.43.0 (0)
 -->
<!-- Title: mcts_tree Pages: 1 -->
<svg width="1110pt" height="550pt"
 viewBox="0.00 0.00 1110.00 550.00" xmlns="http://www.w3.org/2000/svg" xmlns:xlink="http://www.w3.org/1999/xlink">
<g id="graph0" class="graph" transform="scale(1 1) rotate(0) translate(4 546)">
<title>mcts_tree</title>
<polygon fill="white" stroke="transparent" points="-4,4 -4,-546 1106,-546 1106,4 -4,4"/>
<!-- n125246457321744 -->
<g id="node1" class="node">
<title>n125246457321744</title>
<path fill="none" stroke="black" d="M621,-542C621,-542 442,-542 442,-542 436,-542 430,-536 430,-530 430,-530 430,-518 430,-518 430,-512 436,-506 442,-506 442,-506 621,-506 621,-506 627,-506 633,-512 633,-518 633,-518 633,-530 633,-530 633,-536 627,-542 621,-542"/>
<text text-anchor="middle" x="531.5" y="-527" font-family="Courier,monospace" font-size="10.00">v=0.57 n=5</text>
<text text-anchor="middle" x="531.5" y="-516" font-family="Courier,monospace" font-size="10.00">Let me solve this step by step.</text>
</g>
<!-- n125246457321600 -->
<g id="node2" class="node">
<title>n125246457321600</title>
<path fill="none" stroke="black" d="M313,-470C313,-470 122,-470 122,-470 116,-470 110,-464 110,-458 110,-458 110,-441 110,-441 110,-435 116,-429 122,-429 122,-429 313,-429 313,-429 319,-429 325,-435 325,-441 325,-441 325,-458 325,-458 325,-464 319,-470 313,-470"/>
<text text-anchor="middle" x="217.5" y="-458" font-family="Courier,monospace" font-size="10.00">CALCULATE</text>
<text text-anchor="middle" x="217.5" y="-447" font-family="Courier,monospace" font-size="10.00">v=0.57 n=2</text>
<text text-anchor="middle" x="217.5" y="-436" font-family="Courier,monospace" font-size="10.00">So, the updated equation becomes:</text>
</g>
<!-- n125246457321744&#45;&gt;n125246457321600 -->
<g id="edge1" class="edge">
<title>n125246457321744&#45;&gt;n125246457321600</title>
<path fill="none" stroke="#888888" d="M457.48,-505.91C413.98,-495.87 358.55,-483.07 311.92,-472.3"/>
<polygon fill="#888888" stroke="#888888" points="312.64,-468.88 302.11,-470.04 311.07,-475.7 312.64,-468.88"/>
</g>
<!-- n125246457321552 -->
<g id="node6" class="node">
<title>n125246457321552</title>
<path fill="none" stroke="black" d="M678,-470C678,-470 385,-470 385,-470 379,-470 373,-464 373,-458 373,-458 373,-441 373,-441 373,-435 379,-429 385,-429 385,-429 678,-429 678,-429 684,-429 690,-435 690,-441 690,-441 690,-458 690,-458 690,-464 684,-470 678,-470"/>
<text text-anchor="middle" x="531.5" y="-458" font-family="Courier,monospace" font-size="10.00">DECOMPOSE</text>
<text text-anchor="middle" x="531.5" y="-447" font-family="Courier,monospace" font-size="10.00">v=0.61 n=2</text>
<text text-anchor="middle" x="531.5" y="-436" font-family="Courier,monospace" font-size="10.00">These sub&#45;problems can be solved in this order to </text>
</g>
<!-- n125246457321744&#45;&gt;n125246457321552 -->
<g id="edge5" class="edge">
<title>n125246457321744&#45;&gt;n125246457321552</title>
<path fill="none" stroke="#888888" d="M531.5,-505.82C531.5,-498.2 531.5,-489 531.5,-480.32"/>
<polygon fill="#888888" stroke="#888888" points="535,-480.12 531.5,-470.12 528,-480.12 535,-480.12"/>
</g>
<!-- n125246457321504 -->
<g id="node15" class="node">
<title>n125246457321504</title>
<path fill="none" stroke="black" d="M1074,-470C1074,-470 781,-470 781,-470 775,-470 769,-464 769,-458 769,-458 769,-441 769,-441 769,-435 775,-429 781,-429 781,-429 1074,-429 1074,-429 1080,-429 1086,-435 1086,-441 1086,-441 1086,-458 1086,-458 1086,-464 1080,-470 1074,-470"/>
<text text-anchor="middle" x="927.5" y="-458" font-family="Courier,monospace" font-size="10.00">VERIFY</text>
<text text-anchor="middle" x="927.5" y="-447" font-family="Courier,monospace" font-size="10.00">v=0.50 n=1</text>
<text text-anchor="middle" x="927.5" y="-436" font-family="Courier,monospace" font-size="10.00">So far, everything checks out. You&#39;ve identified t</text>
</g>
<!-- n125246457321744&#45;&gt;n125246457321504 -->
<g id="edge14" class="edge">
<title>n125246457321744&#45;&gt;n125246457321504</title>
<path fill="none" stroke="#888888" d="M624.59,-505.96C680.14,-495.79 751.17,-482.78 810.49,-471.92"/>
<polygon fill="#888888" stroke="#888888" points="811.45,-475.3 820.66,-470.06 810.19,-468.42 811.45,-475.3"/>
</g>
<!-- n125246457322560 -->
<g id="node3" class="node">
<title>n125246457322560</title>
<path fill="#4ade80" fill-opacity="0.133333" stroke="black" d="M71,-393C71,-393 12,-393 12,-393 6,-393 0,-387 0,-381 0,-381 0,-353 0,-353 0,-347 6,-341 12,-341 12,-341 71,-341 71,-341 77,-341 83,-347 83,-353 83,-353 83,-381 83,-381 83,-387 77,-393 71,-393"/>
<text text-anchor="middle" x="41.5" y="-381" font-family="Courier,monospace" font-size="10.00">CONCLUDE</text>
<text text-anchor="middle" x="41.5" y="-370" font-family="Courier,monospace" font-size="10.00">v=0.57 n=1</text>
<text text-anchor="middle" x="41.5" y="-359" font-family="Courier,monospace" font-size="10.00">ANSWER: 180</text>
<text text-anchor="middle" x="41.5" y="-348" font-family="Courier,monospace" font-size="10.00">ANSWER: 180</text>
</g>
<!-- n125246457321600&#45;&gt;n125246457322560 -->
<g id="edge2" class="edge">
<title>n125246457321600&#45;&gt;n125246457322560</title>
<path fill="none" stroke="#888888" d="M172.18,-428.87C148.37,-418.43 118.75,-405.26 92.5,-393 92.41,-392.96 92.31,-392.91 92.21,-392.87"/>
<polygon fill="#888888" stroke="#888888" points="93.72,-389.71 83.19,-388.59 90.73,-396.04 93.72,-389.71"/>
</g>
<!-- n125246457322608 -->
<g id="node4" class="node">
<title>n125246457322608</title>
<path fill="none" stroke="black" d="M322,-387.5C322,-387.5 113,-387.5 113,-387.5 107,-387.5 101,-381.5 101,-375.5 101,-375.5 101,-358.5 101,-358.5 101,-352.5 107,-346.5 113,-346.5 113,-346.5 322,-346.5 322,-346.5 328,-346.5 334,-352.5 334,-358.5 334,-358.5 334,-375.5 334,-375.5 334,-381.5 328,-387.5 322,-387.5"/>
<text text-anchor="middle" x="217.5" y="-375.5" font-family="Courier,monospace" font-size="10.00">DECOMPOSE</text>
<text text-anchor="middle" x="217.5" y="-364.5" font-family="Courier,monospace" font-size="10.00">v=0.57 n=1</text>
<text text-anchor="middle" x="217.5" y="-353.5" font-family="Courier,monospace" font-size="10.00">2. Add the result from step 1 to 55.</text>
</g>
<!-- n125246457321600&#45;&gt;n125246457322608 -->
<g id="edge3" class="edge">
<title>n125246457321600&#45;&gt;n125246457322608</title>
<path fill="none" stroke="#888888" d="M217.5,-428.6C217.5,-419.34 217.5,-408.13 217.5,-397.88"/>
<polygon fill="#888888" stroke="#888888" points="221,-397.67 217.5,-387.67 214,-397.67 221,-397.67"/>
</g>
<!-- n125246457322656 -->
<g id="node5" class="node">
<title>n125246457322656</title>
<path fill="#4ade80" fill-opacity="0.133333" stroke="black" d="M232,-305C232,-305 173,-305 173,-305 167,-305 161,-299 161,-293 161,-293 161,-265 161,-265 161,-259 167,-253 173,-253 173,-253 232,-253 232,-253 238,-253 244,-259 244,-265 244,-265 244,-293 244,-293 244,-299 238,-305 232,-305"/>
<text text-anchor="middle" x="202.5" y="-293" font-family="Courier,monospace" font-size="10.00">CONCLUDE</text>
<text text-anchor="middle" x="202.5" y="-282" font-family="Courier,monospace" font-size="10.00">v=0.57 n=1</text>
<text text-anchor="middle" x="202.5" y="-271" font-family="Courier,monospace" font-size="10.00">ANSWER: 180</text>
<text text-anchor="middle" x="202.5" y="-260" font-family="Courier,monospace" font-size="10.00">ANSWER: 180</text>
</g>
<!-- n125246457322608&#45;&gt;n125246457322656 -->
<g id="edge4" class="edge">
<title>n125246457322608&#45;&gt;n125246457322656</title>
<path fill="none" stroke="#888888" d="M214.1,-346.49C212.48,-337.25 210.51,-325.92 208.65,-315.25"/>
<polygon fill="#888888" stroke="#888888" points="212.08,-314.57 206.92,-305.32 205.19,-315.77 212.08,-314.57"/>
</g>
<!-- n125246457322176 -->
<g id="node7" class="node">
<title>n125246457322176</title>
<path fill="none" stroke="black" d="M501,-387.5C501,-387.5 370,-387.5 370,-387.5 364,-387.5 358,-381.5 358,-375.5 358,-375.5 358,-358.5 358,-358.5 358,-352.5 364,-346.5 370,-346.5 370,-346.5 501,-346.5 501,-346.5 507,-346.5 513,-352.5 513,-358.5 513,-358.5 513,-375.5 513,-375.5 513,-381.5 507,-387.5 501,-387.5"/>
<text text-anchor="middle" x="435.5" y="-375.5" font-family="Courier,monospace" font-size="10.00">17 * 23</text>
<text text-anchor="middle" x="435.5" y="-364.5" font-family="Courier,monospace" font-size="10.00">v=0.57 n=1</text>
<text text-anchor="middle" x="435.5" y="-353.5" font-family="Courier,monospace" font-size="10.00">So, 17 * 23 equals 391.</text>
</g>
<!-- n125246457321552&#45;&gt;n125246457322176 -->
<g id="edge6" class="edge">
<title>n125246457321552&#45;&gt;n125246457322176</title>
<path fill="none" stroke="#888888" d="M507.77,-428.6C495.45,-418.27 480.23,-405.51 466.94,-394.36"/>
<polygon fill="#888888" stroke="#888888" points="468.87,-391.41 458.96,-387.67 464.37,-396.78 468.87,-391.41"/>
</g>
<!-- n125246457322272 -->
<g id="node12" class="node">
<title>n125246457322272</title>
<path fill="none" stroke="black" d="M750,-387.5C750,-387.5 553,-387.5 553,-387.5 547,-387.5 541,-381.5 541,-375.5 541,-375.5 541,-358.5 541,-358.5 541,-352.5 547,-346.5 553,-346.5 553,-346.5 750,-346.5 750,-346.5 756,-346.5 762,-352.5 762,-358.5 762,-358.5 762,-375.5 762,-375.5 762,-381.5 756,-387.5 750,-387.5"/>
<text text-anchor="middle" x="651.5" y="-375.5" font-family="Courier,monospace" font-size="10.00">CALCULATE</text>
<text text-anchor="middle" x="651.5" y="-364.5" font-family="Courier,monospace" font-size="10.00">v=0.65 n=1</text>
<text text-anchor="middle" x="651.5" y="-353.5" font-family="Courier,monospace" font-size="10.00">So the result of (17 * 23) is 391.</text>
</g>
<!-- n125246457321552&#45;&gt;n125246457322272 -->
<g id="edge11" class="edge">
<title>n125246457321552&#45;&gt;n125246457322272</title>
<path fill="none" stroke="#888888" d="M560.86,-428.81C576.69,-418.18 596.42,-404.95 613.42,-393.54"/>
<polygon fill="#888888" stroke="#888888" points="615.68,-396.25 622.03,-387.77 611.78,-390.43 615.68,-396.25"/>
</g>
<!-- n125246457322368 -->
<g id="node8" class="node">
<title>n125246457322368</title>
<path fill="none" stroke="black" d="M567,-299.5C567,-299.5 274,-299.5 274,-299.5 268,-299.5 262,-293.5 262,-287.5 262,-287.5 262,-270.5 262,-270.5 262,-264.5 268,-258.5 274,-258.5 274,-258.5 567,-258.5 567,-258.5 573,-258.5 579,-264.5 579,-270.5 579,-270.5 579,-287.5 579,-287.5 579,-293.5 573,-299.5 567,-299.5"/>
<text text-anchor="middle" x="420.5" y="-287.5" font-family="Courier,monospace" font-size="10.00">VERIFY</text>
<text text-anchor="middle" x="420.5" y="-276.5" font-family="Courier,monospace" font-size="10.00">v=0.57 n=1</text>
<text text-anchor="middle" x="420.5" y="-265.5" font-family="Courier,monospace" font-size="10.00">Overall, your reasoning seems sound so far. Well d</text>
</g>
<!-- n125246457322176&#45;&gt;n125246457322368 -->
<g id="edge7" class="edge">
<title>n125246457322176&#45;&gt;n125246457322368</title>
<path fill="none" stroke="#888888" d="M432.1,-346.49C430.21,-335.68 427.83,-322.01 425.71,-309.88"/>
<polygon fill="#888888" stroke="#888888" points="429.11,-308.99 423.94,-299.74 422.21,-310.19 429.11,-308.99"/>
</g>
<!-- n125246457322416 -->
<g id="node9" class="node">
<title>n125246457322416</title>
<path fill="none" stroke="black" d="M489,-211.5C489,-211.5 352,-211.5 352,-211.5 346,-211.5 340,-205.5 340,-199.5 340,-199.5 340,-182.5 340,-182.5 340,-176.5 346,-170.5 352,-170.5 352,-170.5 489,-170.5 489,-170.5 495,-170.5 501,-176.5 501,-182.5 501,-182.5 501,-199.5 501,-199.5 501,-205.5 495,-211.5 489,-211.5"/>
<text text-anchor="middle" x="420.5" y="-199.5" font-family="Courier,monospace" font-size="10.00">DECOMPOSE</text>
<text text-anchor="middle" x="420.5" y="-188.5" font-family="Courier,monospace" font-size="10.00">v=0.57 n=1</text>
<text text-anchor="middle" x="420.5" y="-177.5" font-family="Courier,monospace" font-size="10.00">4. Add 55 to result of 3</text>
</g>
<!-- n125246457322368&#45;&gt;n125246457322416 -->
<g id="edge8" class="edge">
<title>n125246457322368&#45;&gt;n125246457322416</title>
<path fill="none" stroke="#888888" d="M420.5,-258.49C420.5,-247.68 420.5,-234.01 420.5,-221.88"/>
<polygon fill="#888888" stroke="#888888" points="424,-221.74 420.5,-211.74 417,-221.74 424,-221.74"/>
</g>
<!-- n125246457322464 -->
<g id="node10" class="node">
<title>n125246457322464</title>
<path fill="none" stroke="black" d="M447,-129C447,-129 394,-129 394,-129 388,-129 382,-123 382,-117 382,-117 382,-100 382,-100 382,-94 388,-88 394,-88 394,-88 447,-88 447,-88 453,-88 459,-94 459,-100 459,-100 459,-117 459,-117 459,-123 453,-129 447,-129"/>
<text text-anchor="middle" x="420.5" y="-117" font-family="Courier,monospace" font-size="10.00">VERIFY</text>
<text text-anchor="middle" x="420.5" y="-106" font-family="Courier,monospace" font-size="10.00">v=0.57 n=1</text>
<text text-anchor="middle" x="420.5" y="-95" font-family="Courier,monospace" font-size="10.00">[verify]</text>
</g>
<!-- n125246457322416&#45;&gt;n125246457322464 -->
<g id="edge9" class="edge">
<title>n125246457322416&#45;&gt;n125246457322464</title>
<path fill="none" stroke="#888888" d="M420.5,-170.1C420.5,-160.84 420.5,-149.63 420.5,-139.38"/>
<polygon fill="#888888" stroke="#888888" points="424,-139.17 420.5,-129.17 417,-139.17 424,-139.17"/>
</g>
<!-- n125246457322512 -->
<g id="node11" class="node">
<title>n125246457322512</title>
<path fill="#4ade80" fill-opacity="0.133333" stroke="black" d="M528,-52C528,-52 313,-52 313,-52 307,-52 301,-46 301,-40 301,-40 301,-12 301,-12 301,-6 307,0 313,0 313,0 528,0 528,0 534,0 540,-6 540,-12 540,-12 540,-40 540,-40 540,-46 534,-52 528,-52"/>
<text text-anchor="middle" x="420.5" y="-40" font-family="Courier,monospace" font-size="10.00">CONCLUDE</text>
<text text-anchor="middle" x="420.5" y="-29" font-family="Courier,monospace" font-size="10.00">v=0.57 n=1</text>
<text text-anchor="middle" x="420.5" y="-18" font-family="Courier,monospace" font-size="10.00">[conclude] ANSWER: (391) &#45; (294) + 55</text>
<text text-anchor="middle" x="420.5" y="-7" font-family="Courier,monospace" font-size="10.00">ANSWER: (391) &#45; (294) + 55</text>
</g>
<!-- n125246457322464&#45;&gt;n125246457322512 -->
<g id="edge10" class="edge">
<title>n125246457322464&#45;&gt;n125246457322512</title>
<path fill="none" stroke="#888888" d="M420.5,-87.6C420.5,-79.99 420.5,-71.06 420.5,-62.43"/>
<polygon fill="#888888" stroke="#888888" points="424,-62.16 420.5,-52.16 417,-62.16 424,-62.16"/>
</g>
<!-- n125246457322224 -->
<g id="node13" class="node">
<title>n125246457322224</title>
<path fill="none" stroke="black" d="M902,-299.5C902,-299.5 609,-299.5 609,-299.5 603,-299.5 597,-293.5 597,-287.5 597,-287.5 597,-270.5 597,-270.5 597,-264.5 603,-258.5 609,-258.5 609,-258.5 902,-258.5 902,-258.5 908,-258.5 914,-264.5 914,-270.5 914,-270.5 914,-287.5 914,-287.5 914,-293.5 908,-299.5 902,-299.5"/>
<text text-anchor="middle" x="755.5" y="-287.5" font-family="Courier,monospace" font-size="10.00">VERIFY</text>
<text text-anchor="middle" x="755.5" y="-276.5" font-family="Courier,monospace" font-size="10.00">v=0.65 n=1</text>
<text text-anchor="middle" x="755.5" y="-265.5" font-family="Courier,monospace" font-size="10.00">Now that we have the result of the first calculati</text>
</g>
<!-- n125246457322272&#45;&gt;n125246457322224 -->
<g id="edge12" class="edge">
<title>n125246457322272&#45;&gt;n125246457322224</title>
<path fill="none" stroke="#888888" d="M675.1,-346.49C689.49,-334.58 708.07,-319.22 723.74,-306.26"/>
<polygon fill="#888888" stroke="#888888" points="726.16,-308.81 731.63,-299.74 721.7,-303.41 726.16,-308.81"/>
</g>
<!-- n125246457322320 -->
<g id="node14" class="node">
<title>n125246457322320</title>
<path fill="#4ade80" fill-opacity="0.133333" stroke="black" d="M785,-217C785,-217 726,-217 726,-217 720,-217 714,-211 714,-205 714,-205 714,-177 714,-177 714,-171 720,-165 726,-165 726,-165 785,-165 785,-165 791,-165 797,-171 797,-177 797,-177 797,-205 797,-205 797,-211 791,-217 785,-217"/>
<text text-anchor="middle" x="755.5" y="-205" font-family="Courier,monospace" font-size="10.00">ADDITION</text>
<text text-anchor="middle" x="755.5" y="-194" font-family="Courier,monospace" font-size="10.00">v=0.65 n=1</text>
<text text-anchor="middle" x="755.5" y="-183" font-family="Courier,monospace" font-size="10.00">ANSWER: 124</text>
<text text-anchor="middle" x="755.5" y="-172" font-family="Courier,monospace" font-size="10.00">ANSWER: 124</text>
</g>
<!-- n125246457322224&#45;&gt;n125246457322320 -->
<g id="edge13" class="edge">
<title>n125246457322224&#45;&gt;n125246457322320</title>
<path fill="none" stroke="#888888" d="M755.5,-258.49C755.5,-249.34 755.5,-238.15 755.5,-227.58"/>
<polygon fill="#888888" stroke="#888888" points="759,-227.32 755.5,-217.32 752,-227.32 759,-227.32"/>
</g>
<!-- n125246457322032 -->
<g id="node16" class="node">
<title>n125246457322032</title>
<path fill="none" stroke="black" d="M1090,-387.5C1090,-387.5 797,-387.5 797,-387.5 791,-387.5 785,-381.5 785,-375.5 785,-375.5 785,-358.5 785,-358.5 785,-352.5 791,-346.5 797,-346.5 797,-346.5 1090,-346.5 1090,-346.5 1096,-346.5 1102,-352.5 1102,-358.5 1102,-358.5 1102,-375.5 1102,-375.5 1102,-381.5 1096,-387.5 1090,-387.5"/>
<text text-anchor="middle" x="943.5" y="-375.5" font-family="Courier,monospace" font-size="10.00">VERIFY</text>
<text text-anchor="middle" x="943.5" y="-364.5" font-family="Courier,monospace" font-size="10.00">v=0.50 n=1</text>
<text text-anchor="middle" x="943.5" y="-353.5" font-family="Courier,monospace" font-size="10.00">Please proceed with the calculation: (17 * 23) &#45; (</text>
</g>
<!-- n125246457321504&#45;&gt;n125246457322032 -->
<g id="edge15" class="edge">
<title>n125246457321504&#45;&gt;n125246457322032</title>
<path fill="none" stroke="#888888" d="M931.46,-428.6C933.32,-419.24 935.57,-407.89 937.63,-397.56"/>
<polygon fill="#888888" stroke="#888888" points="941.07,-398.16 939.59,-387.67 934.21,-396.8 941.07,-398.16"/>
</g>
<!-- n125246457322128 -->
<g id="node17" class="node">
<title>n125246457322128</title>
<path fill="#f87171" fill-opacity="0.133333" stroke="black" d="M1003,-305C1003,-305 944,-305 944,-305 938,-305 932,-299 932,-293 932,-293 932,-265 932,-265 932,-259 938,-253 944,-253 944,-253 1003,-253 1003,-253 1009,-253 1015,-259 1015,-265 1015,-265 1015,-293 1015,-293 1015,-299 1009,-305 1003,-305"/>
<text text-anchor="middle" x="973.5" y="-293" font-family="Courier,monospace" font-size="10.00">CONCLUDE</text>
<text text-anchor="middle" x="973.5" y="-282" font-family="Courier,monospace" font-size="10.00">v=0.50 n=1</text>
<text text-anchor="middle" x="973.5" y="-271" font-family="Courier,monospace" font-size="10.00">ANSWER: 180</text>
<text text-anchor="middle" x="973.5" y="-260" font-family="Courier,monospace" font-size="10.00">ANSWER: 180</text>
</g>
<!-- n125246457322032&#45;&gt;n125246457322128 -->
<g id="edge16" class="edge">
<title>n125246457322032&#45;&gt;n125246457322128</title>
<path fill="none" stroke="#888888" d="M950.31,-346.49C953.56,-337.15 957.56,-325.69 961.32,-314.92"/>
<polygon fill="#888888" stroke="#888888" points="964.68,-315.91 964.67,-305.32 958.07,-313.61 964.68,-315.91"/>
</g>
</g>
</svg>
