<?xml version="1.0" encoding="UTF-8" standalone="no"?>
<!DOCTYPE svg PUBLIC "-//W3C//DTD SVG 1.1//EN"
 "http://www.w3.org/Graphics/SVG/1.1/DTD/svg11.dtd">
<!-- Generated by graphviz version 2.43.0 (0)
 -->
<!-- Title: mcts_tree Pages: 1 -->
<svg width="850pt" height="275pt"
 viewBox="0.00 0.00 850.00 275.00" xmlns="http://www.w3.org/2000/svg" xmlns:xlink="http://www.w3.org/1999/xlink">
<g id="graph0" class="graph" transform="scale(1 1) rotate(0) translate(4 271)">
<title>mcts_tree</title>
<polygon fill="white" stroke="transparent" points="-4,4 -4,-271 846,-271 846,4 -4,4"/>
<!-- n133026898780400 -->
<g id="node1" class="node">
<title>n133026898780400</title>
<path fill="none" stroke="black" d="M615,-267C615,-267 442,-267 442,-267 436,-267 430,-261 430,-255 430,-255 430,-243 430,-243 430,-237 436,-231 442,-231 442,-231 615,-231 615,-231 621,-231 627,-237 627,-243 627,-243 627,-255 627,-255 627,-261 621,-267 615,-267"/>
<text text-anchor="middle" x="528.5" y="-252" font-family="Courier,monospace" font-size="10.00">v=0.80 n=8</text>
<text text-anchor="middle" x="528.5" y="-241" font-family="Courier,monospace" font-size="10.00">Let me solve this step by step</text>
</g>
<!-- n133026898781216 -->
<g id="node2" class="node">
<title>n133026898781216</title>
<path fill="none" stroke="black" d="M400,-192.5C400,-192.5 227,-192.5 227,-192.5 221,-192.5 215,-186.5 215,-180.5 215,-180.5 215,-168.5 215,-168.5 215,-162.5 221,-156.5 227,-156.5 227,-156.5 400,-156.5 400,-156.5 406,-156.5 412,-162.5 412,-168.5 412,-168.5 412,-180.5 412,-180.5 412,-186.5 406,-192.5 400,-192.5"/>
<text text-anchor="middle" x="313.5" y="-177.5" font-family="Courier,monospace" font-size="10.00">v=0.80 n=3</text>
<text text-anchor="middle" x="313.5" y="-166.5" font-family="Courier,monospace" font-size="10.00">Let me assume A is a knight. T</text>
</g>
<!-- n133026898780400&#45;&gt;n133026898781216 -->
<g id="edge1" class="edge">
<title>n133026898780400&#45;&gt;n133026898781216</title>
<path fill="none" stroke="#888888" d="M477.82,-230.91C446.63,-220.39 406.49,-206.86 373.69,-195.8"/>
<polygon fill="#888888" stroke="#888888" points="374.81,-192.48 364.21,-192.6 372.57,-199.11 374.81,-192.48"/>
</g>
<!-- n133026898781360 -->
<g id="node7" class="node">
<title>n133026898781360</title>
<path fill="#4ade80" fill-opacity="0.133333" stroke="black" d="M615,-195C615,-195 442,-195 442,-195 436,-195 430,-189 430,-183 430,-183 430,-166 430,-166 430,-160 436,-154 442,-154 442,-154 615,-154 615,-154 621,-154 627,-160 627,-166 627,-166 627,-183 627,-183 627,-189 621,-195 615,-195"/>
<text text-anchor="middle" x="528.5" y="-183" font-family="Courier,monospace" font-size="10.00">v=0.80 n=3</text>
<text text-anchor="middle" x="528.5" y="-172" font-family="Courier,monospace" font-size="10.00">Alternatively, assume A is a k</text>
<text text-anchor="middle" x="528.5" y="-161" font-family="Courier,monospace" font-size="10.00">ANSWER: 42</text>
</g>
<!-- n133026898780400&#45;&gt;n133026898781360 -->
<g id="edge6" class="edge">
<title>n133026898780400&#45;&gt;n133026898781360</title>
<path fill="none" stroke="#888888" d="M528.5,-230.82C528.5,-223.2 528.5,-214 528.5,-205.32"/>
<polygon fill="#888888" stroke="#888888" points="532,-205.12 528.5,-195.12 525,-205.12 532,-205.12"/>
</g>
<!-- n133026898781408 -->
<g id="node8" class="node">
<title>n133026898781408</title>
<path fill="#4ade80" fill-opacity="0.133333" stroke="black" d="M830,-195C830,-195 657,-195 657,-195 651,-195 645,-189 645,-183 645,-183 645,-166 645,-166 645,-160 651,-154 657,-154 657,-154 830,-154 830,-154 836,-154 842,-160 842,-166 842,-166 842,-183 842,-183 842,-189 836,-195 830,-195"/>
<text text-anchor="middle" x="743.5" y="-183" font-family="Courier,monospace" font-size="10.00">v=0.80 n=2</text>
<text text-anchor="middle" x="743.5" y="-172" font-family="Courier,monospace" font-size="10.00">If A lies about B being a knav</text>
<text text-anchor="middle" x="743.5" y="-161" font-family="Courier,monospace" font-size="10.00">ANSWER: 42</text>
</g>
<!-- n133026898780400&#45;&gt;n133026898781408 -->
<g id="edge7" class="edge">
<title>n133026898780400&#45;&gt;n133026898781408</title>
<path fill="none" stroke="#888888" d="M579.18,-230.91C608.09,-221.16 644.71,-208.81 676.03,-198.25"/>
<polygon fill="#888888" stroke="#888888" points="677.21,-201.55 685.56,-195.04 674.97,-194.92 677.21,-201.55"/>
</g>
<!-- n133026898781264 -->
<g id="node3" class="node">
<title>n133026898781264</title>
<path fill="none" stroke="black" d="M185,-115.5C185,-115.5 12,-115.5 12,-115.5 6,-115.5 0,-109.5 0,-103.5 0,-103.5 0,-91.5 0,-91.5 0,-85.5 6,-79.5 12,-79.5 12,-79.5 185,-79.5 185,-79.5 191,-79.5 197,-85.5 197,-91.5 197,-91.5 197,-103.5 197,-103.5 197,-109.5 191,-115.5 185,-115.5"/>
<text text-anchor="middle" x="98.5" y="-100.5" font-family="Courier,monospace" font-size="10.00">v=0.80 n=1</text>
<text text-anchor="middle" x="98.5" y="-89.5" font-family="Courier,monospace" font-size="10.00">If A tells truth, then B is a </text>
</g>
<!-- n133026898781216&#45;&gt;n133026898781264 -->
<g id="edge2" class="edge">
<title>n133026898781216&#45;&gt;n133026898781264</title>
<path fill="none" stroke="#888888" d="M264.71,-156.48C232.8,-145.35 190.93,-130.74 157.2,-118.98"/>
<polygon fill="#888888" stroke="#888888" points="158.06,-115.57 147.47,-115.58 155.75,-122.18 158.06,-115.57"/>
</g>
<!-- n133026898781312 -->
<g id="node5" class="node">
<title>n133026898781312</title>
<path fill="#4ade80" fill-opacity="0.133333" stroke="black" d="M400,-118C400,-118 227,-118 227,-118 221,-118 215,-112 215,-106 215,-106 215,-89 215,-89 215,-83 221,-77 227,-77 227,-77 400,-77 400,-77 406,-77 412,-83 412,-89 412,-89 412,-106 412,-106 412,-112 406,-118 400,-118"/>
<text text-anchor="middle" x="313.5" y="-106" font-family="Courier,monospace" font-size="10.00">v=0.80 n=1</text>
<text text-anchor="middle" x="313.5" y="-95" font-family="Courier,monospace" font-size="10.00">B is a knight, so B tells trut</text>
<text text-anchor="middle" x="313.5" y="-84" font-family="Courier,monospace" font-size="10.00">ANSWER: 42</text>
</g>
<!-- n133026898781216&#45;&gt;n133026898781312 -->
<g id="edge4" class="edge">
<title>n133026898781216&#45;&gt;n133026898781312</title>
<path fill="none" stroke="#888888" d="M313.5,-156.48C313.5,-148.1 313.5,-137.76 313.5,-128.13"/>
<polygon fill="#888888" stroke="#888888" points="317,-128.1 313.5,-118.1 310,-128.1 317,-128.1"/>
</g>
<!-- n133026898781456 -->
<g id="node6" class="node">
<title>n133026898781456</title>
<path fill="#4ade80" fill-opacity="0.133333" stroke="black" d="M615,-118C615,-118 442,-118 442,-118 436,-118 430,-112 430,-106 430,-106 430,-89 430,-89 430,-83 436,-77 442,-77 442,-77 615,-77 615,-77 621,-77 627,-83 627,-89 627,-89 627,-106 627,-106 627,-112 621,-118 615,-118"/>
<text text-anchor="middle" x="528.5" y="-106" font-family="Courier,monospace" font-size="10.00">v=0.80 n=1</text>
<text text-anchor="middle" x="528.5" y="-95" font-family="Courier,monospace" font-size="10.00">Let me assume A is a knight. T</text>
<text text-anchor="middle" x="528.5" y="-84" font-family="Courier,monospace" font-size="10.00">ANSWER: 42</text>
</g>
<!-- n133026898781216&#45;&gt;n133026898781456 -->
<g id="edge5" class="edge">
<title>n133026898781216&#45;&gt;n133026898781456</title>
<path fill="none" stroke="#888888" d="M362.29,-156.48C391.93,-146.14 430.16,-132.8 462.48,-121.53"/>
<polygon fill="#888888" stroke="#888888" points="464.02,-124.7 472.31,-118.1 461.71,-118.09 464.02,-124.7"/>
</g>
<!-- n133026898781120 -->
<g id="node4" class="node">
<title>n133026898781120</title>
<path fill="#4ade80" fill-opacity="0.133333" stroke="black" d="M185,-41C185,-41 12,-41 12,-41 6,-41 0,-35 0,-29 0,-29 0,-12 0,-12 0,-6 6,0 12,0 12,0 185,0 185,0 191,0 197,-6 197,-12 197,-12 197,-29 197,-29 197,-35 191,-41 185,-41"/>
<text text-anchor="middle" x="98.5" y="-29" font-family="Courier,monospace" font-size="10.00">v=0.80 n=1</text>
<text text-anchor="middle" x="98.5" y="-18" font-family="Courier,monospace" font-size="10.00">B is a knave, so B lies. B say</text>
<text text-anchor="middle" x="98.5" y="-7" font-family="Courier,monospace" font-size="10.00">ANSWER: 42</text>
</g>
<!-- n133026898781264&#45;&gt;n133026898781120 -->
<g id="edge3" class="edge">
<title>n133026898781264&#45;&gt;n133026898781120</title>
<path fill="none" stroke="#888888" d="M98.5,-79.48C98.5,-71.1 98.5,-60.76 98.5,-51.13"/>
<polygon fill="#888888" stroke="#888888" points="102,-51.1 98.5,-41.1 95,-51.1 102,-51.1"/>
</g>
</g>
</svg>
