<?xml version="1.0" encoding="UTF-8" standalone="no"?>
<!DOCTYPE svg PUBLIC "-//W3C//DTD SVG 1.1//EN"
 "http://www.w3.org/Graphics/SVG/1.1/DTD/svg11.dtd">
<!-- Generated by graphviz version 2.43.0 (0)
 -->
<!-- Title: mcts_tree Pages: 1 -->
<svg width="1640pt" height="594pt"
 viewBox="0.00 0.00 1640.00 594.00" xmlns="http://www.w3.org/2000/svg" xmlns:xlink="http://www.w3.org/1999/xlink">
<g id="graph0" class="graph" transform="scale(1 1) rotate(0) translate(4 590)">
<title>mcts_tree</title>
<polygon fill="white" stroke="transparent" points="-4,4 -4,-590 1636,-590 1636,4 -4,4"/>
<!-- n133788065429648 -->
<g id="node1" class="node">
<title>n133788065429648</title>
<path fill="none" stroke="black" d="M1180,-586C1180,-586 1001,-586 1001,-586 995,-586 989,-580 989,-574 989,-574 989,-562 989,-562 989,-556 995,-550 1001,-550 1001,-550 1180,-550 1180,-550 1186,-550 1192,-556 1192,-562 1192,-562 1192,-574 1192,-574 1192,-580 1186,-586 1180,-586"/>
<text text-anchor="middle" x="1090.5" y="-571" font-family="Courier,monospace" font-size="10.00">v=0.17 n=10</text>
<text text-anchor="middle" x="1090.5" y="-560" font-family="Courier,monospace" font-size="10.00">Let me solve this step by step.</text>
</g>
<!-- n133788067466752 -->
<g id="node2" class="node">
<title>n133788067466752</title>
<path fill="none" stroke="black" d="M658,-508.5C658,-508.5 425,-508.5 425,-508.5 419,-508.5 413,-502.5 413,-496.5 413,-496.5 413,-479.5 413,-479.5 413,-473.5 419,-467.5 425,-467.5 425,-467.5 658,-467.5 658,-467.5 664,-467.5 670,-473.5 670,-479.5 670,-479.5 670,-496.5 670,-496.5 670,-502.5 664,-508.5 658,-508.5"/>
<text text-anchor="middle" x="541.5" y="-496.5" font-family="Courier,monospace" font-size="10.00">ASSUME</text>
<text text-anchor="middle" x="541.5" y="-485.5" font-family="Courier,monospace" font-size="10.00">v=0.00 n=3</text>
<text text-anchor="middle" x="541.5" y="-474.5" font-family="Courier,monospace" font-size="10.00">[assume] ASSUME: A is a knight. THEN: A </text>
</g>
<!-- n133788065429648&#45;&gt;n133788067466752 -->
<g id="edge1" class="edge">
<title>n133788065429648&#45;&gt;n133788067466752</title>
<path fill="none" stroke="#888888" d="M988.84,-552.56C902.03,-540.22 776.33,-522.36 680.26,-508.71"/>
<polygon fill="#888888" stroke="#888888" points="680.57,-505.22 670.18,-507.28 679.59,-512.15 680.57,-505.22"/>
</g>
<!-- n133788065430032 -->
<g id="node20" class="node">
<title>n133788065430032</title>
<path fill="none" stroke="black" d="M1207,-508.5C1207,-508.5 974,-508.5 974,-508.5 968,-508.5 962,-502.5 962,-496.5 962,-496.5 962,-479.5 962,-479.5 962,-473.5 968,-467.5 974,-467.5 974,-467.5 1207,-467.5 1207,-467.5 1213,-467.5 1219,-473.5 1219,-479.5 1219,-479.5 1219,-496.5 1219,-496.5 1219,-502.5 1213,-508.5 1207,-508.5"/>
<text text-anchor="middle" x="1090.5" y="-496.5" font-family="Courier,monospace" font-size="10.00">COMPARE</text>
<text text-anchor="middle" x="1090.5" y="-485.5" font-family="Courier,monospace" font-size="10.00">v=0.00 n=3</text>
<text text-anchor="middle" x="1090.5" y="-474.5" font-family="Courier,monospace" font-size="10.00">[compare] Continuing analysis of the kni</text>
</g>
<!-- n133788065429648&#45;&gt;n133788065430032 -->
<g id="edge19" class="edge">
<title>n133788065429648&#45;&gt;n133788065430032</title>
<path fill="none" stroke="#888888" d="M1090.5,-549.69C1090.5,-540.6 1090.5,-529.21 1090.5,-518.76"/>
<polygon fill="#888888" stroke="#888888" points="1094,-518.74 1090.5,-508.74 1087,-518.74 1094,-518.74"/>
</g>
<!-- n133788065430128 -->
<g id="node38" class="node">
<title>n133788065430128</title>
<path fill="#f87171" fill-opacity="0.133333" stroke="black" d="M1482,-514C1482,-514 1249,-514 1249,-514 1243,-514 1237,-508 1237,-502 1237,-502 1237,-474 1237,-474 1237,-468 1243,-462 1249,-462 1249,-462 1482,-462 1482,-462 1488,-462 1494,-468 1494,-474 1494,-474 1494,-502 1494,-502 1494,-508 1488,-514 1482,-514"/>
<text text-anchor="middle" x="1365.5" y="-502" font-family="Courier,monospace" font-size="10.00">DEDUCE</text>
<text text-anchor="middle" x="1365.5" y="-491" font-family="Courier,monospace" font-size="10.00">v=0.42 n=4</text>
<text text-anchor="middle" x="1365.5" y="-480" font-family="Courier,monospace" font-size="10.00">[deduce] Based on testing both cases: A=</text>
<text text-anchor="middle" x="1365.5" y="-469" font-family="Courier,monospace" font-size="10.00">ANSWER: A is a knight</text>
</g>
<!-- n133788065429648&#45;&gt;n133788065430128 -->
<g id="edge37" class="edge">
<title>n133788065429648&#45;&gt;n133788065430128</title>
<path fill="none" stroke="#888888" d="M1150.51,-549.98C1184.67,-540.29 1228.32,-527.91 1267.34,-516.84"/>
<polygon fill="#888888" stroke="#888888" points="1268.49,-520.15 1277.15,-514.06 1266.58,-513.42 1268.49,-520.15"/>
</g>
<!-- n133788065787600 -->
<g id="node3" class="node">
<title>n133788065787600</title>
<path fill="none" stroke="black" d="M245,-426C245,-426 12,-426 12,-426 6,-426 0,-420 0,-414 0,-414 0,-397 0,-397 0,-391 6,-385 12,-385 12,-385 245,-385 245,-385 251,-385 257,-391 257,-397 257,-397 257,-414 257,-414 257,-420 251,-426 245,-426"/>
<text text-anchor="middle" x="128.5" y="-414" font-family="Courier,monospace" font-size="10.00">DEDUCE</text>
<text text-anchor="middle" x="128.5" y="-403" font-family="Courier,monospace" font-size="10.00">v=0.00 n=1</text>
<text text-anchor="middle" x="128.5" y="-392" font-family="Courier,monospace" font-size="10.00">[deduce] ASSUME: A is a knave. THEN: A l</text>
</g>
<!-- n133788067466752&#45;&gt;n133788065787600 -->
<g id="edge2" class="edge">
<title>n133788067466752&#45;&gt;n133788065787600</title>
<path fill="none" stroke="#888888" d="M441.26,-467.46C380.07,-455.54 301.77,-440.27 238.83,-428"/>
<polygon fill="#888888" stroke="#888888" points="239.35,-424.54 228.86,-426.06 238.01,-431.41 239.35,-424.54"/>
</g>
<!-- n133788065430368 -->
<g id="node8" class="node">
<title>n133788065430368</title>
<path fill="none" stroke="black" d="M520,-426C520,-426 287,-426 287,-426 281,-426 275,-420 275,-414 275,-414 275,-397 275,-397 275,-391 281,-385 287,-385 287,-385 520,-385 520,-385 526,-385 532,-391 532,-397 532,-397 532,-414 532,-414 532,-420 526,-426 520,-426"/>
<text text-anchor="middle" x="403.5" y="-414" font-family="Courier,monospace" font-size="10.00">CONCLUDE</text>
<text text-anchor="middle" x="403.5" y="-403" font-family="Courier,monospace" font-size="10.00">v=0.00 n=1</text>
<text text-anchor="middle" x="403.5" y="-392" font-family="Courier,monospace" font-size="10.00">[conclude] ASSUME: A is a knave. THEN: A</text>
</g>
<!-- n133788067466752&#45;&gt;n133788065430368 -->
<g id="edge7" class="edge">
<title>n133788067466752&#45;&gt;n133788065430368</title>
<path fill="none" stroke="#888888" d="M507.74,-467.31C489.2,-456.49 466.01,-442.96 446.22,-431.42"/>
<polygon fill="#888888" stroke="#888888" points="447.79,-428.28 437.39,-426.27 444.26,-434.33 447.79,-428.28"/>
</g>
<!-- n133788065430992 -->
<g id="node14" class="node">
<title>n133788065430992</title>
<path fill="none" stroke="black" d="M795,-426C795,-426 562,-426 562,-426 556,-426 550,-420 550,-414 550,-414 550,-397 550,-397 550,-391 556,-385 562,-385 562,-385 795,-385 795,-385 801,-385 807,-391 807,-397 807,-397 807,-414 807,-414 807,-420 801,-426 795,-426"/>
<text text-anchor="middle" x="678.5" y="-414" font-family="Courier,monospace" font-size="10.00">COMPARE</text>
<text text-anchor="middle" x="678.5" y="-403" font-family="Courier,monospace" font-size="10.00">v=0.00 n=1</text>
<text text-anchor="middle" x="678.5" y="-392" font-family="Courier,monospace" font-size="10.00">[compare] ASSUME: A is a knave. THEN: A </text>
</g>
<!-- n133788067466752&#45;&gt;n133788065430992 -->
<g id="edge13" class="edge">
<title>n133788067466752&#45;&gt;n133788065430992</title>
<path fill="none" stroke="#888888" d="M575.01,-467.31C593.42,-456.49 616.44,-442.96 636.09,-431.42"/>
<polygon fill="#888888" stroke="#888888" points="638.01,-434.35 644.86,-426.27 634.46,-428.32 638.01,-434.35"/>
</g>
<!-- n133788065667248 -->
<g id="node4" class="node">
<title>n133788065667248</title>
<path fill="none" stroke="black" d="M245,-349C245,-349 12,-349 12,-349 6,-349 0,-343 0,-337 0,-337 0,-320 0,-320 0,-314 6,-308 12,-308 12,-308 245,-308 245,-308 251,-308 257,-314 257,-320 257,-320 257,-337 257,-337 257,-343 251,-349 245,-349"/>
<text text-anchor="middle" x="128.5" y="-337" font-family="Courier,monospace" font-size="10.00">ASSUME</text>
<text text-anchor="middle" x="128.5" y="-326" font-family="Courier,monospace" font-size="10.00">v=0.00 n=1</text>
<text text-anchor="middle" x="128.5" y="-315" font-family="Courier,monospace" font-size="10.00">[assume] ASSUME: B is a knight. THEN: B </text>
</g>
<!-- n133788065787600&#45;&gt;n133788065667248 -->
<g id="edge3" class="edge">
<title>n133788065787600&#45;&gt;n133788065667248</title>
<path fill="none" stroke="#888888" d="M128.5,-384.79C128.5,-376.96 128.5,-367.77 128.5,-359.16"/>
<polygon fill="#888888" stroke="#888888" points="132,-359.07 128.5,-349.07 125,-359.07 132,-359.07"/>
</g>
<!-- n133788065429888 -->
<g id="node5" class="node">
<title>n133788065429888</title>
<path fill="none" stroke="black" d="M245,-272C245,-272 12,-272 12,-272 6,-272 0,-266 0,-260 0,-260 0,-243 0,-243 0,-237 6,-231 12,-231 12,-231 245,-231 245,-231 251,-231 257,-237 257,-243 257,-243 257,-260 257,-260 257,-266 251,-272 245,-272"/>
<text text-anchor="middle" x="128.5" y="-260" font-family="Courier,monospace" font-size="10.00">VERIFY</text>
<text text-anchor="middle" x="128.5" y="-249" font-family="Courier,monospace" font-size="10.00">v=0.00 n=1</text>
<text text-anchor="middle" x="128.5" y="-238" font-family="Courier,monospace" font-size="10.00">[verify] ASSUME: A is a knight. THEN: A </text>
</g>
<!-- n133788065667248&#45;&gt;n133788065429888 -->
<g id="edge4" class="edge">
<title>n133788065667248&#45;&gt;n133788065429888</title>
<path fill="none" stroke="#888888" d="M128.5,-307.79C128.5,-299.96 128.5,-290.77 128.5,-282.16"/>
<polygon fill="#888888" stroke="#888888" points="132,-282.07 128.5,-272.07 125,-282.07 132,-282.07"/>
</g>
<!-- n133788065429936 -->
<g id="node6" class="node">
<title>n133788065429936</title>
<path fill="none" stroke="black" d="M245,-195C245,-195 12,-195 12,-195 6,-195 0,-189 0,-183 0,-183 0,-166 0,-166 0,-160 6,-154 12,-154 12,-154 245,-154 245,-154 251,-154 257,-160 257,-166 257,-166 257,-183 257,-183 257,-189 251,-195 245,-195"/>
<text text-anchor="middle" x="128.5" y="-183" font-family="Courier,monospace" font-size="10.00">COMPARE</text>
<text text-anchor="middle" x="128.5" y="-172" font-family="Courier,monospace" font-size="10.00">v=0.00 n=1</text>
<text text-anchor="middle" x="128.5" y="-161" font-family="Courier,monospace" font-size="10.00">[compare] ASSUME: A is a knave. THEN: A </text>
</g>
<!-- n133788065429888&#45;&gt;n133788065429936 -->
<g id="edge5" class="edge">
<title>n133788065429888&#45;&gt;n133788065429936</title>
<path fill="none" stroke="#888888" d="M128.5,-230.79C128.5,-222.96 128.5,-213.77 128.5,-205.16"/>
<polygon fill="#888888" stroke="#888888" points="132,-205.07 128.5,-195.07 125,-205.07 132,-205.07"/>
</g>
<!-- n133788065429984 -->
<g id="node7" class="node">
<title>n133788065429984</title>
<path fill="none" stroke="black" d="M245,-118C245,-118 12,-118 12,-118 6,-118 0,-112 0,-106 0,-106 0,-89 0,-89 0,-83 6,-77 12,-77 12,-77 245,-77 245,-77 251,-77 257,-83 257,-89 257,-89 257,-106 257,-106 257,-112 251,-118 245,-118"/>
<text text-anchor="middle" x="128.5" y="-106" font-family="Courier,monospace" font-size="10.00">VERIFY</text>
<text text-anchor="middle" x="128.5" y="-95" font-family="Courier,monospace" font-size="10.00">v=0.00 n=1</text>
<text text-anchor="middle" x="128.5" y="-84" font-family="Courier,monospace" font-size="10.00">[verify] ASSUME: B is a knight. THEN: B </text>
</g>
<!-- n133788065429936&#45;&gt;n133788065429984 -->
<g id="edge6" class="edge">
<title>n133788065429936&#45;&gt;n133788065429984</title>
<path fill="none" stroke="#888888" d="M128.5,-153.79C128.5,-145.96 128.5,-136.77 128.5,-128.16"/>
<polygon fill="#888888" stroke="#888888" points="132,-128.07 128.5,-118.07 125,-128.07 132,-128.07"/>
</g>
<!-- n133788065430416 -->
<g id="node9" class="node">
<title>n133788065430416</title>
<path fill="none" stroke="black" d="M520,-349C520,-349 287,-349 287,-349 281,-349 275,-343 275,-337 275,-337 275,-320 275,-320 275,-314 281,-308 287,-308 287,-308 520,-308 520,-308 526,-308 532,-314 532,-320 532,-320 532,-337 532,-337 532,-343 526,-349 520,-349"/>
<text text-anchor="middle" x="403.5" y="-337" font-family="Courier,monospace" font-size="10.00">COMPARE</text>
<text text-anchor="middle" x="403.5" y="-326" font-family="Courier,monospace" font-size="10.00">v=0.00 n=1</text>
<text text-anchor="middle" x="403.5" y="-315" font-family="Courier,monospace" font-size="10.00">[compare] ASSUME: B is a knight. THEN: B</text>
</g>
<!-- n133788065430368&#45;&gt;n133788065430416 -->
<g id="edge8" class="edge">
<title>n133788065430368&#45;&gt;n133788065430416</title>
<path fill="none" stroke="#888888" d="M403.5,-384.79C403.5,-376.96 403.5,-367.77 403.5,-359.16"/>
<polygon fill="#888888" stroke="#888888" points="407,-359.07 403.5,-349.07 400,-359.07 407,-359.07"/>
</g>
<!-- n133788065430752 -->
<g id="node10" class="node">
<title>n133788065430752</title>
<path fill="none" stroke="black" d="M520,-272C520,-272 287,-272 287,-272 281,-272 275,-266 275,-260 275,-260 275,-243 275,-243 275,-237 281,-231 287,-231 287,-231 520,-231 520,-231 526,-231 532,-237 532,-243 532,-243 532,-260 532,-260 532,-266 526,-272 520,-272"/>
<text text-anchor="middle" x="403.5" y="-260" font-family="Courier,monospace" font-size="10.00">CONCLUDE</text>
<text text-anchor="middle" x="403.5" y="-249" font-family="Courier,monospace" font-size="10.00">v=0.00 n=1</text>
<text text-anchor="middle" x="403.5" y="-238" font-family="Courier,monospace" font-size="10.00">[conclude] ASSUME: A is a knight. THEN: </text>
</g>
<!-- n133788065430416&#45;&gt;n133788065430752 -->
<g id="edge9" class="edge">
<title>n133788065430416&#45;&gt;n133788065430752</title>
<path fill="none" stroke="#888888" d="M403.5,-307.79C403.5,-299.96 403.5,-290.77 403.5,-282.16"/>
<polygon fill="#888888" stroke="#888888" points="407,-282.07 403.5,-272.07 400,-282.07 407,-282.07"/>
</g>
<!-- n133788065430560 -->
<g id="node11" class="node">
<title>n133788065430560</title>
<path fill="none" stroke="black" d="M520,-195C520,-195 287,-195 287,-195 281,-195 275,-189 275,-183 275,-183 275,-166 275,-166 275,-160 281,-154 287,-154 287,-154 520,-154 520,-154 526,-154 532,-160 532,-166 532,-166 532,-183 532,-183 532,-189 526,-195 520,-195"/>
<text text-anchor="middle" x="403.5" y="-183" font-family="Courier,monospace" font-size="10.00">DEDUCE</text>
<text text-anchor="middle" x="403.5" y="-172" font-family="Courier,monospace" font-size="10.00">v=0.00 n=1</text>
<text text-anchor="middle" x="403.5" y="-161" font-family="Courier,monospace" font-size="10.00">[deduce] ASSUME: A is a knave. THEN: A l</text>
</g>
<!-- n133788065430752&#45;&gt;n133788065430560 -->
<g id="edge10" class="edge">
<title>n133788065430752&#45;&gt;n133788065430560</title>
<path fill="none" stroke="#888888" d="M403.5,-230.79C403.5,-222.96 403.5,-213.77 403.5,-205.16"/>
<polygon fill="#888888" stroke="#888888" points="407,-205.07 403.5,-195.07 400,-205.07 407,-205.07"/>
</g>
<!-- n133788065430800 -->
<g id="node12" class="node">
<title>n133788065430800</title>
<path fill="none" stroke="black" d="M520,-118C520,-118 287,-118 287,-118 281,-118 275,-112 275,-106 275,-106 275,-89 275,-89 275,-83 281,-77 287,-77 287,-77 520,-77 520,-77 526,-77 532,-83 532,-89 532,-89 532,-106 532,-106 532,-112 526,-118 520,-118"/>
<text text-anchor="middle" x="403.5" y="-106" font-family="Courier,monospace" font-size="10.00">VERIFY</text>
<text text-anchor="middle" x="403.5" y="-95" font-family="Courier,monospace" font-size="10.00">v=0.00 n=1</text>
<text text-anchor="middle" x="403.5" y="-84" font-family="Courier,monospace" font-size="10.00">[verify] ASSUME: B is a knight. THEN: B </text>
</g>
<!-- n133788065430560&#45;&gt;n133788065430800 -->
<g id="edge11" class="edge">
<title>n133788065430560&#45;&gt;n133788065430800</title>
<path fill="none" stroke="#888888" d="M403.5,-153.79C403.5,-145.96 403.5,-136.77 403.5,-128.16"/>
<polygon fill="#888888" stroke="#888888" points="407,-128.07 403.5,-118.07 400,-128.07 407,-128.07"/>
</g>
<!-- n133788065430944 -->
<g id="node13" class="node">
<title>n133788065430944</title>
<path fill="none" stroke="black" d="M520,-41C520,-41 287,-41 287,-41 281,-41 275,-35 275,-29 275,-29 275,-12 275,-12 275,-6 281,0 287,0 287,0 520,0 520,0 526,0 532,-6 532,-12 532,-12 532,-29 532,-29 532,-35 526,-41 520,-41"/>
<text text-anchor="middle" x="403.5" y="-29" font-family="Courier,monospace" font-size="10.00">DEDUCE</text>
<text text-anchor="middle" x="403.5" y="-18" font-family="Courier,monospace" font-size="10.00">v=0.00 n=1</text>
<text text-anchor="middle" x="403.5" y="-7" font-family="Courier,monospace" font-size="10.00">[deduce] ASSUME: A is a knight. THEN: A </text>
</g>
<!-- n133788065430800&#45;&gt;n133788065430944 -->
<g id="edge12" class="edge">
<title>n133788065430800&#45;&gt;n133788065430944</title>
<path fill="none" stroke="#888888" d="M403.5,-76.79C403.5,-68.96 403.5,-59.77 403.5,-51.16"/>
<polygon fill="#888888" stroke="#888888" points="407,-51.07 403.5,-41.07 400,-51.07 407,-51.07"/>
</g>
<!-- n133788065430656 -->
<g id="node15" class="node">
<title>n133788065430656</title>
<path fill="none" stroke="black" d="M795,-349C795,-349 562,-349 562,-349 556,-349 550,-343 550,-337 550,-337 550,-320 550,-320 550,-314 556,-308 562,-308 562,-308 795,-308 795,-308 801,-308 807,-314 807,-320 807,-320 807,-337 807,-337 807,-343 801,-349 795,-349"/>
<text text-anchor="middle" x="678.5" y="-337" font-family="Courier,monospace" font-size="10.00">COMPARE</text>
<text text-anchor="middle" x="678.5" y="-326" font-family="Courier,monospace" font-size="10.00">v=0.00 n=1</text>
<text text-anchor="middle" x="678.5" y="-315" font-family="Courier,monospace" font-size="10.00">[compare] ASSUME: B is a knight. THEN: B</text>
</g>
<!-- n133788065430992&#45;&gt;n133788065430656 -->
<g id="edge14" class="edge">
<title>n133788065430992&#45;&gt;n133788065430656</title>
<path fill="none" stroke="#888888" d="M678.5,-384.79C678.5,-376.96 678.5,-367.77 678.5,-359.16"/>
<polygon fill="#888888" stroke="#888888" points="682,-359.07 678.5,-349.07 675,-359.07 682,-359.07"/>
</g>
<!-- n133788065429792 -->
<g id="node16" class="node">
<title>n133788065429792</title>
<path fill="none" stroke="black" d="M795,-272C795,-272 562,-272 562,-272 556,-272 550,-266 550,-260 550,-260 550,-243 550,-243 550,-237 556,-231 562,-231 562,-231 795,-231 795,-231 801,-231 807,-237 807,-243 807,-243 807,-260 807,-260 807,-266 801,-272 795,-272"/>
<text text-anchor="middle" x="678.5" y="-260" font-family="Courier,monospace" font-size="10.00">ASSUME</text>
<text text-anchor="middle" x="678.5" y="-249" font-family="Courier,monospace" font-size="10.00">v=0.00 n=1</text>
<text text-anchor="middle" x="678.5" y="-238" font-family="Courier,monospace" font-size="10.00">[assume] ASSUME: A is a knight. THEN: A </text>
</g>
<!-- n133788065430656&#45;&gt;n133788065429792 -->
<g id="edge15" class="edge">
<title>n133788065430656&#45;&gt;n133788065429792</title>
<path fill="none" stroke="#888888" d="M678.5,-307.79C678.5,-299.96 678.5,-290.77 678.5,-282.16"/>
<polygon fill="#888888" stroke="#888888" points="682,-282.07 678.5,-272.07 675,-282.07 682,-282.07"/>
</g>
<!-- n133788065431088 -->
<g id="node17" class="node">
<title>n133788065431088</title>
<path fill="none" stroke="black" d="M795,-195C795,-195 562,-195 562,-195 556,-195 550,-189 550,-183 550,-183 550,-166 550,-166 550,-160 556,-154 562,-154 562,-154 795,-154 795,-154 801,-154 807,-160 807,-166 807,-166 807,-183 807,-183 807,-189 801,-195 795,-195"/>
<text text-anchor="middle" x="678.5" y="-183" font-family="Courier,monospace" font-size="10.00">CONCLUDE</text>
<text text-anchor="middle" x="678.5" y="-172" font-family="Courier,monospace" font-size="10.00">v=0.00 n=1</text>
<text text-anchor="middle" x="678.5" y="-161" font-family="Courier,monospace" font-size="10.00">[conclude] ASSUME: A is a knave. THEN: A</text>
</g>
<!-- n133788065429792&#45;&gt;n133788065431088 -->
<g id="edge16" class="edge">
<title>n133788065429792&#45;&gt;n133788065431088</title>
<path fill="none" stroke="#888888" d="M678.5,-230.79C678.5,-222.96 678.5,-213.77 678.5,-205.16"/>
<polygon fill="#888888" stroke="#888888" points="682,-205.07 678.5,-195.07 675,-205.07 682,-205.07"/>
</g>
<!-- n133788065431040 -->
<g id="node18" class="node">
<title>n133788065431040</title>
<path fill="none" stroke="black" d="M795,-118C795,-118 562,-118 562,-118 556,-118 550,-112 550,-106 550,-106 550,-89 550,-89 550,-83 556,-77 562,-77 562,-77 795,-77 795,-77 801,-77 807,-83 807,-89 807,-89 807,-106 807,-106 807,-112 801,-118 795,-118"/>
<text text-anchor="middle" x="678.5" y="-106" font-family="Courier,monospace" font-size="10.00">ASSUME</text>
<text text-anchor="middle" x="678.5" y="-95" font-family="Courier,monospace" font-size="10.00">v=0.00 n=1</text>
<text text-anchor="middle" x="678.5" y="-84" font-family="Courier,monospace" font-size="10.00">[assume] ASSUME: B is a knight. THEN: B </text>
</g>
<!-- n133788065431088&#45;&gt;n133788065431040 -->
<g id="edge17" class="edge">
<title>n133788065431088&#45;&gt;n133788065431040</title>
<path fill="none" stroke="#888888" d="M678.5,-153.79C678.5,-145.96 678.5,-136.77 678.5,-128.16"/>
<polygon fill="#888888" stroke="#888888" points="682,-128.07 678.5,-118.07 675,-128.07 682,-128.07"/>
</g>
<!-- n133788065430896 -->
<g id="node19" class="node">
<title>n133788065430896</title>
<path fill="none" stroke="black" d="M795,-41C795,-41 562,-41 562,-41 556,-41 550,-35 550,-29 550,-29 550,-12 550,-12 550,-6 556,0 562,0 562,0 795,0 795,0 801,0 807,-6 807,-12 807,-12 807,-29 807,-29 807,-35 801,-41 795,-41"/>
<text text-anchor="middle" x="678.5" y="-29" font-family="Courier,monospace" font-size="10.00">COMPARE</text>
<text text-anchor="middle" x="678.5" y="-18" font-family="Courier,monospace" font-size="10.00">v=0.00 n=1</text>
<text text-anchor="middle" x="678.5" y="-7" font-family="Courier,monospace" font-size="10.00">[compare] ASSUME: A is a knight. THEN: A</text>
</g>
<!-- n133788065431040&#45;&gt;n133788065430896 -->
<g id="edge18" class="edge">
<title>n133788065431040&#45;&gt;n133788065430896</title>
<path fill="none" stroke="#888888" d="M678.5,-76.79C678.5,-68.96 678.5,-59.77 678.5,-51.16"/>
<polygon fill="#888888" stroke="#888888" points="682,-51.07 678.5,-41.07 675,-51.07 682,-51.07"/>
</g>
<!-- n133788065429840 -->
<g id="node21" class="node">
<title>n133788065429840</title>
<path fill="none" stroke="black" d="M1070,-426C1070,-426 837,-426 837,-426 831,-426 825,-420 825,-414 825,-414 825,-397 825,-397 825,-391 831,-385 837,-385 837,-385 1070,-385 1070,-385 1076,-385 1082,-391 1082,-397 1082,-397 1082,-414 1082,-414 1082,-420 1076,-426 1070,-426"/>
<text text-anchor="middle" x="953.5" y="-414" font-family="Courier,monospace" font-size="10.00">VERIFY</text>
<text text-anchor="middle" x="953.5" y="-403" font-family="Courier,monospace" font-size="10.00">v=0.00 n=1</text>
<text text-anchor="middle" x="953.5" y="-392" font-family="Courier,monospace" font-size="10.00">[verify] ASSUME: A is a knave. THEN: A l</text>
</g>
<!-- n133788065430032&#45;&gt;n133788065429840 -->
<g id="edge20" class="edge">
<title>n133788065430032&#45;&gt;n133788065429840</title>
<path fill="none" stroke="#888888" d="M1056.99,-467.31C1038.58,-456.49 1015.56,-442.96 995.91,-431.42"/>
<polygon fill="#888888" stroke="#888888" points="997.54,-428.32 987.14,-426.27 993.99,-434.35 997.54,-428.32"/>
</g>
<!-- n133788065430608 -->
<g id="node26" class="node">
<title>n133788065430608</title>
<path fill="none" stroke="black" d="M1345,-426C1345,-426 1112,-426 1112,-426 1106,-426 1100,-420 1100,-414 1100,-414 1100,-397 1100,-397 1100,-391 1106,-385 1112,-385 1112,-385 1345,-385 1345,-385 1351,-385 1357,-391 1357,-397 1357,-397 1357,-414 1357,-414 1357,-420 1351,-426 1345,-426"/>
<text text-anchor="middle" x="1228.5" y="-414" font-family="Courier,monospace" font-size="10.00">VERIFY</text>
<text text-anchor="middle" x="1228.5" y="-403" font-family="Courier,monospace" font-size="10.00">v=0.00 n=1</text>
<text text-anchor="middle" x="1228.5" y="-392" font-family="Courier,monospace" font-size="10.00">[verify] ASSUME: A is a knave. THEN: A l</text>
</g>
<!-- n133788065430032&#45;&gt;n133788065430608 -->
<g id="edge25" class="edge">
<title>n133788065430032&#45;&gt;n133788065430608</title>
<path fill="none" stroke="#888888" d="M1124.26,-467.31C1142.8,-456.49 1165.99,-442.96 1185.78,-431.42"/>
<polygon fill="#888888" stroke="#888888" points="1187.74,-434.33 1194.61,-426.27 1184.21,-428.28 1187.74,-434.33"/>
</g>
<!-- n133788065425952 -->
<g id="node32" class="node">
<title>n133788065425952</title>
<path fill="none" stroke="black" d="M1620,-426C1620,-426 1387,-426 1387,-426 1381,-426 1375,-420 1375,-414 1375,-414 1375,-397 1375,-397 1375,-391 1381,-385 1387,-385 1387,-385 1620,-385 1620,-385 1626,-385 1632,-391 1632,-397 1632,-397 1632,-414 1632,-414 1632,-420 1626,-426 1620,-426"/>
<text text-anchor="middle" x="1503.5" y="-414" font-family="Courier,monospace" font-size="10.00">DEDUCE</text>
<text text-anchor="middle" x="1503.5" y="-403" font-family="Courier,monospace" font-size="10.00">v=0.00 n=1</text>
<text text-anchor="middle" x="1503.5" y="-392" font-family="Courier,monospace" font-size="10.00">[deduce] The A&#45;is&#45;knight branch is fully</text>
</g>
<!-- n133788065430032&#45;&gt;n133788065425952 -->
<g id="edge31" class="edge">
<title>n133788065430032&#45;&gt;n133788065425952</title>
<path fill="none" stroke="#888888" d="M1190.74,-467.46C1251.93,-455.54 1330.23,-440.27 1393.17,-428"/>
<polygon fill="#888888" stroke="#888888" points="1393.99,-431.41 1403.14,-426.06 1392.65,-424.54 1393.99,-431.41"/>
</g>
<!-- n133788065430080 -->
<g id="node22" class="node">
<title>n133788065430080</title>
<path fill="none" stroke="black" d="M1070,-349C1070,-349 837,-349 837,-349 831,-349 825,-343 825,-337 825,-337 825,-320 825,-320 825,-314 831,-308 837,-308 837,-308 1070,-308 1070,-308 1076,-308 1082,-314 1082,-320 1082,-320 1082,-337 1082,-337 1082,-343 1076,-349 1070,-349"/>
<text text-anchor="middle" x="953.5" y="-337" font-family="Courier,monospace" font-size="10.00">DEDUCE</text>
<text text-anchor="middle" x="953.5" y="-326" font-family="Courier,monospace" font-size="10.00">v=0.00 n=1</text>
<text text-anchor="middle" x="953.5" y="-315" font-family="Courier,monospace" font-size="10.00">[deduce] ASSUME: B is a knight. THEN: B </text>
</g>
<!-- n133788065429840&#45;&gt;n133788065430080 -->
<g id="edge21" class="edge">
<title>n133788065429840&#45;&gt;n133788065430080</title>
<path fill="none" stroke="#888888" d="M953.5,-384.79C953.5,-376.96 953.5,-367.77 953.5,-359.16"/>
<polygon fill="#888888" stroke="#888888" points="957,-359.07 953.5,-349.07 950,-359.07 957,-359.07"/>
</g>
<!-- n133788065430176 -->
<g id="node23" class="node">
<title>n133788065430176</title>
<path fill="none" stroke="black" d="M1070,-272C1070,-272 837,-272 837,-272 831,-272 825,-266 825,-260 825,-260 825,-243 825,-243 825,-237 831,-231 837,-231 837,-231 1070,-231 1070,-231 1076,-231 1082,-237 1082,-243 1082,-243 1082,-260 1082,-260 1082,-266 1076,-272 1070,-272"/>
<text text-anchor="middle" x="953.5" y="-260" font-family="Courier,monospace" font-size="10.00">VERIFY</text>
<text text-anchor="middle" x="953.5" y="-249" font-family="Courier,monospace" font-size="10.00">v=0.00 n=1</text>
<text text-anchor="middle" x="953.5" y="-238" font-family="Courier,monospace" font-size="10.00">[verify] ASSUME: A is a knight. THEN: A </text>
</g>
<!-- n133788065430080&#45;&gt;n133788065430176 -->
<g id="edge22" class="edge">
<title>n133788065430080&#45;&gt;n133788065430176</title>
<path fill="none" stroke="#888888" d="M953.5,-307.79C953.5,-299.96 953.5,-290.77 953.5,-282.16"/>
<polygon fill="#888888" stroke="#888888" points="957,-282.07 953.5,-272.07 950,-282.07 957,-282.07"/>
</g>
<!-- n133788065430224 -->
<g id="node24" class="node">
<title>n133788065430224</title>
<path fill="none" stroke="black" d="M1070,-195C1070,-195 837,-195 837,-195 831,-195 825,-189 825,-183 825,-183 825,-166 825,-166 825,-160 831,-154 837,-154 837,-154 1070,-154 1070,-154 1076,-154 1082,-160 1082,-166 1082,-166 1082,-183 1082,-183 1082,-189 1076,-195 1070,-195"/>
<text text-anchor="middle" x="953.5" y="-183" font-family="Courier,monospace" font-size="10.00">VERIFY</text>
<text text-anchor="middle" x="953.5" y="-172" font-family="Courier,monospace" font-size="10.00">v=0.00 n=1</text>
<text text-anchor="middle" x="953.5" y="-161" font-family="Courier,monospace" font-size="10.00">[verify] ASSUME: A is a knave. THEN: A l</text>
</g>
<!-- n133788065430176&#45;&gt;n133788065430224 -->
<g id="edge23" class="edge">
<title>n133788065430176&#45;&gt;n133788065430224</title>
<path fill="none" stroke="#888888" d="M953.5,-230.79C953.5,-222.96 953.5,-213.77 953.5,-205.16"/>
<polygon fill="#888888" stroke="#888888" points="957,-205.07 953.5,-195.07 950,-205.07 957,-205.07"/>
</g>
<!-- n133788065430272 -->
<g id="node25" class="node">
<title>n133788065430272</title>
<path fill="none" stroke="black" d="M1070,-118C1070,-118 837,-118 837,-118 831,-118 825,-112 825,-106 825,-106 825,-89 825,-89 825,-83 831,-77 837,-77 837,-77 1070,-77 1070,-77 1076,-77 1082,-83 1082,-89 1082,-89 1082,-106 1082,-106 1082,-112 1076,-118 1070,-118"/>
<text text-anchor="middle" x="953.5" y="-106" font-family="Courier,monospace" font-size="10.00">VERIFY</text>
<text text-anchor="middle" x="953.5" y="-95" font-family="Courier,monospace" font-size="10.00">v=0.00 n=1</text>
<text text-anchor="middle" x="953.5" y="-84" font-family="Courier,monospace" font-size="10.00">[verify] ASSUME: B is a knight. THEN: B </text>
</g>
<!-- n133788065430224&#45;&gt;n133788065430272 -->
<g id="edge24" class="edge">
<title>n133788065430224&#45;&gt;n133788065430272</title>
<path fill="none" stroke="#888888" d="M953.5,-153.79C953.5,-145.96 953.5,-136.77 953.5,-128.16"/>
<polygon fill="#888888" stroke="#888888" points="957,-128.07 953.5,-118.07 950,-128.07 957,-128.07"/>
</g>
<!-- n133788065430464 -->
<g id="node27" class="node">
<title>n133788065430464</title>
<path fill="none" stroke="black" d="M1345,-349C1345,-349 1112,-349 1112,-349 1106,-349 1100,-343 1100,-337 1100,-337 1100,-320 1100,-320 1100,-314 1106,-308 1112,-308 1112,-308 1345,-308 1345,-308 1351,-308 1357,-314 1357,-320 1357,-320 1357,-337 1357,-337 1357,-343 1351,-349 1345,-349"/>
<text text-anchor="middle" x="1228.5" y="-337" font-family="Courier,monospace" font-size="10.00">ASSUME</text>
<text text-anchor="middle" x="1228.5" y="-326" font-family="Courier,monospace" font-size="10.00">v=0.00 n=1</text>
<text text-anchor="middle" x="1228.5" y="-315" font-family="Courier,monospace" font-size="10.00">[assume] ASSUME: B is a knight. THEN: B </text>
</g>
<!-- n133788065430608&#45;&gt;n133788065430464 -->
<g id="edge26" class="edge">
<title>n133788065430608&#45;&gt;n133788065430464</title>
<path fill="none" stroke="#888888" d="M1228.5,-384.79C1228.5,-376.96 1228.5,-367.77 1228.5,-359.16"/>
<polygon fill="#888888" stroke="#888888" points="1232,-359.07 1228.5,-349.07 1225,-359.07 1232,-359.07"/>
</g>
<!-- n133788065430320 -->
<g id="node28" class="node">
<title>n133788065430320</title>
<path fill="none" stroke="black" d="M1345,-272C1345,-272 1112,-272 1112,-272 1106,-272 1100,-266 1100,-260 1100,-260 1100,-243 1100,-243 1100,-237 1106,-231 1112,-231 1112,-231 1345,-231 1345,-231 1351,-231 1357,-237 1357,-243 1357,-243 1357,-260 1357,-260 1357,-266 1351,-272 1345,-272"/>
<text text-anchor="middle" x="1228.5" y="-260" font-family="Courier,monospace" font-size="10.00">VERIFY</text>
<text text-anchor="middle" x="1228.5" y="-249" font-family="Courier,monospace" font-size="10.00">v=0.00 n=1</text>
<text text-anchor="middle" x="1228.5" y="-238" font-family="Courier,monospace" font-size="10.00">[verify] ASSUME: A is a knight. THEN: A </text>
</g>
<!-- n133788065430464&#45;&gt;n133788065430320 -->
<g id="edge27" class="edge">
<title>n133788065430464&#45;&gt;n133788065430320</title>
<path fill="none" stroke="#888888" d="M1228.5,-307.79C1228.5,-299.96 1228.5,-290.77 1228.5,-282.16"/>
<polygon fill="#888888" stroke="#888888" points="1232,-282.07 1228.5,-272.07 1225,-282.07 1232,-282.07"/>
</g>
<!-- n133788065430704 -->
<g id="node29" class="node">
<title>n133788065430704</title>
<path fill="none" stroke="black" d="M1345,-195C1345,-195 1112,-195 1112,-195 1106,-195 1100,-189 1100,-183 1100,-183 1100,-166 1100,-166 1100,-160 1106,-154 1112,-154 1112,-154 1345,-154 1345,-154 1351,-154 1357,-160 1357,-166 1357,-166 1357,-183 1357,-183 1357,-189 1351,-195 1345,-195"/>
<text text-anchor="middle" x="1228.5" y="-183" font-family="Courier,monospace" font-size="10.00">VERIFY</text>
<text text-anchor="middle" x="1228.5" y="-172" font-family="Courier,monospace" font-size="10.00">v=0.00 n=1</text>
<text text-anchor="middle" x="1228.5" y="-161" font-family="Courier,monospace" font-size="10.00">[verify] ASSUME: A is a knave. THEN: A l</text>
</g>
<!-- n133788065430320&#45;&gt;n133788065430704 -->
<g id="edge28" class="edge">
<title>n133788065430320&#45;&gt;n133788065430704</title>
<path fill="none" stroke="#888888" d="M1228.5,-230.79C1228.5,-222.96 1228.5,-213.77 1228.5,-205.16"/>
<polygon fill="#888888" stroke="#888888" points="1232,-205.07 1228.5,-195.07 1225,-205.07 1232,-205.07"/>
</g>
<!-- n133788065430848 -->
<g id="node30" class="node">
<title>n133788065430848</title>
<path fill="none" stroke="black" d="M1345,-118C1345,-118 1112,-118 1112,-118 1106,-118 1100,-112 1100,-106 1100,-106 1100,-89 1100,-89 1100,-83 1106,-77 1112,-77 1112,-77 1345,-77 1345,-77 1351,-77 1357,-83 1357,-89 1357,-89 1357,-106 1357,-106 1357,-112 1351,-118 1345,-118"/>
<text text-anchor="middle" x="1228.5" y="-106" font-family="Courier,monospace" font-size="10.00">VERIFY</text>
<text text-anchor="middle" x="1228.5" y="-95" font-family="Courier,monospace" font-size="10.00">v=0.00 n=1</text>
<text text-anchor="middle" x="1228.5" y="-84" font-family="Courier,monospace" font-size="10.00">[verify] ASSUME: B is a knight. THEN: B </text>
</g>
<!-- n133788065430704&#45;&gt;n133788065430848 -->
<g id="edge29" class="edge">
<title>n133788065430704&#45;&gt;n133788065430848</title>
<path fill="none" stroke="#888888" d="M1228.5,-153.79C1228.5,-145.96 1228.5,-136.77 1228.5,-128.16"/>
<polygon fill="#888888" stroke="#888888" points="1232,-128.07 1228.5,-118.07 1225,-128.07 1232,-128.07"/>
</g>
<!-- n133788065430512 -->
<g id="node31" class="node">
<title>n133788065430512</title>
<path fill="none" stroke="black" d="M1345,-41C1345,-41 1112,-41 1112,-41 1106,-41 1100,-35 1100,-29 1100,-29 1100,-12 1100,-12 1100,-6 1106,0 1112,0 1112,0 1345,0 1345,0 1351,0 1357,-6 1357,-12 1357,-12 1357,-29 1357,-29 1357,-35 1351,-41 1345,-41"/>
<text text-anchor="middle" x="1228.5" y="-29" font-family="Courier,monospace" font-size="10.00">CONCLUDE</text>
<text text-anchor="middle" x="1228.5" y="-18" font-family="Courier,monospace" font-size="10.00">v=0.00 n=1</text>
<text text-anchor="middle" x="1228.5" y="-7" font-family="Courier,monospace" font-size="10.00">[conclude] ASSUME: A is a knight. THEN: </text>
</g>
<!-- n133788065430848&#45;&gt;n133788065430512 -->
<g id="edge30" class="edge">
<title>n133788065430848&#45;&gt;n133788065430512</title>
<path fill="none" stroke="#888888" d="M1228.5,-76.79C1228.5,-68.96 1228.5,-59.77 1228.5,-51.16"/>
<polygon fill="#888888" stroke="#888888" points="1232,-51.07 1228.5,-41.07 1225,-51.07 1232,-51.07"/>
</g>
<!-- n133788065431232 -->
<g id="node33" class="node">
<title>n133788065431232</title>
<path fill="none" stroke="black" d="M1620,-349C1620,-349 1387,-349 1387,-349 1381,-349 1375,-343 1375,-337 1375,-337 1375,-320 1375,-320 1375,-314 1381,-308 1387,-308 1387,-308 1620,-308 1620,-308 1626,-308 1632,-314 1632,-320 1632,-320 1632,-337 1632,-337 1632,-343 1626,-349 1620,-349"/>
<text text-anchor="middle" x="1503.5" y="-337" font-family="Courier,monospace" font-size="10.00">CONCLUDE</text>
<text text-anchor="middle" x="1503.5" y="-326" font-family="Courier,monospace" font-size="10.00">v=0.00 n=1</text>
<text text-anchor="middle" x="1503.5" y="-315" font-family="Courier,monospace" font-size="10.00">[conclude] Checking A=knight, B=knave: A</text>
</g>
<!-- n133788065425952&#45;&gt;n133788065431232 -->
<g id="edge32" class="edge">
<title>n133788065425952&#45;&gt;n133788065431232</title>
<path fill="none" stroke="#888888" d="M1503.5,-384.79C1503.5,-376.96 1503.5,-367.77 1503.5,-359.16"/>
<polygon fill="#888888" stroke="#888888" points="1507,-359.07 1503.5,-349.07 1500,-359.07 1507,-359.07"/>
</g>
<!-- n133788065431280 -->
<g id="node34" class="node">
<title>n133788065431280</title>
<path fill="none" stroke="black" d="M1620,-272C1620,-272 1387,-272 1387,-272 1381,-272 1375,-266 1375,-260 1375,-260 1375,-243 1375,-243 1375,-237 1381,-231 1387,-231 1387,-231 1620,-231 1620,-231 1626,-231 1632,-237 1632,-243 1632,-243 1632,-260 1632,-260 1632,-266 1626,-272 1620,-272"/>
<text text-anchor="middle" x="1503.5" y="-260" font-family="Courier,monospace" font-size="10.00">ASSUME</text>
<text text-anchor="middle" x="1503.5" y="-249" font-family="Courier,monospace" font-size="10.00">v=0.00 n=1</text>
<text text-anchor="middle" x="1503.5" y="-238" font-family="Courier,monospace" font-size="10.00">[assume] ASSUME: A is a knight. THEN: A </text>
</g>
<!-- n133788065431232&#45;&gt;n133788065431280 -->
<g id="edge33" class="edge">
<title>n133788065431232&#45;&gt;n133788065431280</title>
<path fill="none" stroke="#888888" d="M1503.5,-307.79C1503.5,-299.96 1503.5,-290.77 1503.5,-282.16"/>
<polygon fill="#888888" stroke="#888888" points="1507,-282.07 1503.5,-272.07 1500,-282.07 1507,-282.07"/>
</g>
<!-- n133788065431376 -->
<g id="node35" class="node">
<title>n133788065431376</title>
<path fill="none" stroke="black" d="M1620,-195C1620,-195 1387,-195 1387,-195 1381,-195 1375,-189 1375,-183 1375,-183 1375,-166 1375,-166 1375,-160 1381,-154 1387,-154 1387,-154 1620,-154 1620,-154 1626,-154 1632,-160 1632,-166 1632,-166 1632,-183 1632,-183 1632,-189 1626,-195 1620,-195"/>
<text text-anchor="middle" x="1503.5" y="-183" font-family="Courier,monospace" font-size="10.00">ASSUME</text>
<text text-anchor="middle" x="1503.5" y="-172" font-family="Courier,monospace" font-size="10.00">v=0.00 n=1</text>
<text text-anchor="middle" x="1503.5" y="-161" font-family="Courier,monospace" font-size="10.00">[assume] ASSUME: A is a knave. THEN: A l</text>
</g>
<!-- n133788065431280&#45;&gt;n133788065431376 -->
<g id="edge34" class="edge">
<title>n133788065431280&#45;&gt;n133788065431376</title>
<path fill="none" stroke="#888888" d="M1503.5,-230.79C1503.5,-222.96 1503.5,-213.77 1503.5,-205.16"/>
<polygon fill="#888888" stroke="#888888" points="1507,-205.07 1503.5,-195.07 1500,-205.07 1507,-205.07"/>
</g>
<!-- n133788065431328 -->
<g id="node36" class="node">
<title>n133788065431328</title>
<path fill="none" stroke="black" d="M1620,-118C1620,-118 1387,-118 1387,-118 1381,-118 1375,-112 1375,-106 1375,-106 1375,-89 1375,-89 1375,-83 1381,-77 1387,-77 1387,-77 1620,-77 1620,-77 1626,-77 1632,-83 1632,-89 1632,-89 1632,-106 1632,-106 1632,-112 1626,-118 1620,-118"/>
<text text-anchor="middle" x="1503.5" y="-106" font-family="Courier,monospace" font-size="10.00">DEDUCE</text>
<text text-anchor="middle" x="1503.5" y="-95" font-family="Courier,monospace" font-size="10.00">v=0.00 n=1</text>
<text text-anchor="middle" x="1503.5" y="-84" font-family="Courier,monospace" font-size="10.00">[deduce] ASSUME: B is a knight. THEN: B </text>
</g>
<!-- n133788065431376&#45;&gt;n133788065431328 -->
<g id="edge35" class="edge">
<title>n133788065431376&#45;&gt;n133788065431328</title>
<path fill="none" stroke="#888888" d="M1503.5,-153.79C1503.5,-145.96 1503.5,-136.77 1503.5,-128.16"/>
<polygon fill="#888888" stroke="#888888" points="1507,-128.07 1503.5,-118.07 1500,-128.07 1507,-128.07"/>
</g>
<!-- n133788065431184 -->
<g id="node37" class="node">
<title>n133788065431184</title>
<path fill="none" stroke="black" d="M1620,-41C1620,-41 1387,-41 1387,-41 1381,-41 1375,-35 1375,-29 1375,-29 1375,-12 1375,-12 1375,-6 1381,0 1387,0 1387,0 1620,0 1620,0 1626,0 1632,-6 1632,-12 1632,-12 1632,-29 1632,-29 1632,-35 1626,-41 1620,-41"/>
<text text-anchor="middle" x="1503.5" y="-29" font-family="Courier,monospace" font-size="10.00">COMPARE</text>
<text text-anchor="middle" x="1503.5" y="-18" font-family="Courier,monospace" font-size="10.00">v=0.00 n=1</text>
<text text-anchor="middle" x="1503.5" y="-7" font-family="Courier,monospace" font-size="10.00">[compare] ASSUME: A is a knight. THEN: A</text>
</g>
<!-- n133788065431328&#45;&gt;n133788065431184 -->
<g id="edge36" class="edge">
<title>n133788065431328&#45;&gt;n133788065431184</title>
<path fill="none" stroke="#888888" d="M1503.5,-76.79C1503.5,-68.96 1503.5,-59.77 1503.5,-51.16"/>
<polygon fill="#888888" stroke="#888888" points="1507,-51.07 1503.5,-41.07 1500,-51.07 1507,-51.07"/>
</g>
</g>
</svg>
